<svg class="dashboard"
  xmlns="http://www.w3.org/2000/svg" width="20" height="20" viewBox="0 0 20 20" fill="none">
  <path d="M16.7004 5.68333L11.9004 2.325C10.592 1.40833 8.58369 1.45833 7.32536 2.43333L3.15036 5.69167C2.31702 6.34167 1.65869 7.675 1.65869 8.725V14.475C1.65869 16.6 3.38369 18.3333 5.50869 18.3333H14.492C16.617 18.3333 18.342 16.6083 18.342 14.4833V8.83333C18.342 7.70833 17.617 6.325 16.7004 5.68333ZM10.6254 15C10.6254 15.3417 10.342 15.625 10.0004 15.625C9.65869 15.625 9.37536 15.3417 9.37536 15V12.5C9.37536 12.1583 9.65869 11.875 10.0004 11.875C10.342 11.875 10.6254 12.1583 10.6254 12.5V15Z" fill="#616161" />
</svg>
