<svg className = "triggers"
 xmlns="http://www.w3.org/2000/svg" width="18" height="18" viewBox="0 0 18 18" fill="none">
  <g clip-path="url(#clip0_742_5350)">
    <path d="M3.74538 5.51408C3.74538 3.36142 5.49669 1.61012 7.64934 1.61012C9.80199 1.61012 11.5533 3.36142 11.5533 5.51408C11.5533 5.88083 11.5022 6.24413 11.4013 6.59397L12.468 6.90152C12.5977 6.45173 12.6634 5.98492 12.6634 5.51411C12.6634 2.74934 10.4141 0.500031 7.64934 0.500031C4.88456 0.500031 2.63525 2.74934 2.63525 5.51411C2.63525 6.74125 3.08508 7.92309 3.90191 8.84198L4.73162 8.10441C4.09567 7.38894 3.74538 6.46901 3.74538 5.51408Z" fill="#616161"/>
    <path d="M10.7888 5.90009C10.8049 5.7685 10.8131 5.63861 10.8131 5.51406C10.8131 3.76949 9.39379 2.35019 7.64922 2.35019C5.90465 2.35019 4.48535 3.76949 4.48535 5.51406C4.48535 6.22654 4.71815 6.9002 5.15857 7.46222L6.03235 6.7775C5.74653 6.41278 5.59544 5.97587 5.59544 5.51406C5.59544 4.38161 6.51674 3.46032 7.64918 3.46032C8.78163 3.46032 9.70292 4.38161 9.70292 5.51406C9.70292 5.5948 9.69767 5.67695 9.68686 5.76521L10.7888 5.90009Z" fill="#616161"/>
    <path d="M14.4209 8.86106C13.8998 8.86106 13.4773 9.28354 13.4773 9.80467H13.1072V8.78801C13.1072 8.26688 12.6848 7.8444 12.1636 7.8444C11.6425 7.8444 11.22 8.26688 11.22 8.78801V9.80467H10.85V7.85946C10.85 7.33833 10.4275 6.91585 9.90638 6.91585C9.38525 6.91585 8.96277 7.33833 8.96277 7.85946V9.80467H8.59272V5.51398C8.59272 4.99285 8.17025 4.57037 7.64911 4.57037C7.12798 4.57037 6.7055 4.99285 6.7055 5.51398V12.5003H6.33546V10.2219C6.33546 9.7008 5.91298 9.27832 5.39185 9.27832C4.87072 9.27832 4.44824 9.7008 4.44824 10.2219V13.6948C4.44824 15.793 6.15521 17.4999 8.25336 17.4999H11.5594C13.6575 17.4999 15.3645 15.793 15.3645 13.6948V9.80467C15.3645 9.28354 14.942 8.86106 14.4209 8.86106Z" fill="#616161"/>
  </g>
  <defs>
    <clipPath id="clip0_742_5350">
      <rect width="17" height="17" fill="white" transform="translate(0.5 0.5)"/>
    </clipPath>
  </defs>
</svg>