<svg className = "vehicle"
 xmlns="http://www.w3.org/2000/svg" width="20" height="16" viewBox="0 0 20 16" fill="none">
  <path d="M18.644 11.5865V10.8814H19.322C19.322 10.1325 18.7149 9.52545 17.9661 9.52545H17.2881V10.8814H17.9661V11.5865C18.1906 11.5499 18.4195 11.5499 18.644 11.5865Z" fill="#616161"/>
  <path d="M18.305 8.87797V8.50848C18.305 8.32126 18.1533 8.16949 17.9661 8.16949H17.2881V8.84746C17.6273 8.8266 17.9677 8.83681 18.305 8.87797Z" fill="#616161"/>
  <path d="M15.3285 2.74579H14.937L15.2336 7.49155H16.5153L15.3285 2.74579Z" fill="#616161"/>
  <path d="M8.47461 11.2203V12.5763H12.2034V11.8983C12.2034 11.5239 11.8999 11.2203 11.5255 11.2203H8.47461Z" fill="#616161"/>
  <path d="M4.06796 15.6271C5.00404 15.6271 5.76288 14.8683 5.76288 13.9322C5.76288 12.9961 5.00404 12.2373 4.06796 12.2373C3.13189 12.2373 2.37305 12.9961 2.37305 13.9322C2.37305 14.8683 3.13189 15.6271 4.06796 15.6271Z" fill="#616161"/>
  <path d="M1.01695 2.40679V9.18645C0.642519 9.18645 0.338983 9.48999 0.338983 9.86442V14.2712H1.01695V13.9322C1.03354 12.8423 1.63036 11.8439 2.58259 11.3133C3.53482 10.7827 4.6978 10.8004 5.63344 11.3598C6.56908 11.9191 7.13524 12.9351 7.11864 14.0251V14.2712H14.5763V13.2543H8.47458C8.10015 13.2543 7.79661 12.9507 7.79661 12.5763V9.86442C7.79661 9.48999 7.49307 9.18645 7.11864 9.18645H1.69492V2.40679H8.47458V10.5424H9.83051V7.83052C9.83051 7.45609 9.52697 7.15256 9.15254 7.15256V2.40679H17.9661C18.1533 2.40679 18.3051 2.25502 18.3051 2.06781C18.3051 1.13173 17.5462 0.372894 16.6102 0.372894H1.01695C0.455304 0.372894 0 0.828198 0 1.38984C0 1.95149 0.455304 2.40679 1.01695 2.40679Z" fill="#616161"/>
  <path d="M16.6103 8.16949H15.2544V14.2712H15.9595C15.8499 13.5403 16.091 12.8005 16.6103 12.2746V8.16949Z" fill="#616161"/>
  <path d="M18.6443 12.2712C17.9421 12.1279 17.2256 12.4417 16.8548 13.055C16.484 13.6683 16.5391 14.4485 16.9923 15.0037C17.4455 15.5589 18.1989 15.769 18.874 15.5285C19.5492 15.288 20 14.6489 20.0002 13.9322C20.0004 13.1267 19.4335 12.4323 18.6443 12.2712Z" fill="#616161"/>
</svg>