<svg width="251" height="264" viewBox="0 0 251 264" fill="none" xmlns="http://www.w3.org/2000/svg">
<path d="M32.6827 137.643L31.8365 153.636L31.1539 166.634L27.3213 174.086L24.1639 180.23C23.2183 182.178 21.533 183.664 19.4779 184.354C18.8119 184.482 21.8905 183.89 12.9644 185.606C11.1511 186.21 9.31665 184.731 9.52272 182.833L14.1378 140.061C14.28 138.752 15.3751 137.75 16.6905 137.721L24.0645 137.835L26.2547 137.785L32.6827 137.643Z" fill="#FFAE44"/>
<path d="M144.818 162.55C141.622 164.849 136.051 166.466 129.164 167.569C121.03 168.873 111.059 169.468 101.008 169.656C76.4484 170.114 32.5307 170.061 32.5307 170.061C27.1791 156.337 26.7091 145.596 32.0858 137.875L101.083 130.502C101.083 130.502 85.4663 104.921 100.619 90.5454L134.666 94.1738C134.666 94.1738 161.03 150.887 144.818 162.55Z" fill="white"/>
<path d="M36.4598 170.245C34.0311 170.245 32.608 170.244 32.5306 170.243C32.4552 170.243 32.388 170.197 32.3605 170.127C26.8157 155.907 26.6772 145.323 31.9364 137.771C31.9664 137.727 32.0143 137.699 32.0667 137.694L100.782 130.351C100.053 129.095 96.7662 123.19 94.9913 115.958C93.1461 108.437 92.6023 97.899 100.493 90.4128C100.533 90.3756 100.586 90.3537 100.638 90.3639L134.685 93.9927C134.749 93.9993 134.804 94.0391 134.831 94.0971C134.898 94.2392 141.481 108.467 145.997 123.937C152.078 144.77 151.718 157.811 144.924 162.698C141.922 164.859 136.629 166.558 129.193 167.75C121.871 168.923 112.389 169.626 101.011 169.838C81.0137 170.211 47.7994 170.245 36.4598 170.245ZM32.6553 169.879C35.2704 169.881 77.3696 169.914 101.004 169.474C112.365 169.261 121.83 168.56 129.135 167.389C136.515 166.207 141.755 164.529 144.712 162.401C160.311 151.18 135.742 96.9591 134.544 94.3446L100.684 90.7356C85.9109 104.858 101.083 130.153 101.239 130.407C101.271 130.46 101.274 130.526 101.246 130.582C101.219 130.639 101.164 130.676 101.102 130.683L32.1884 138.048C27.0662 145.468 27.2195 155.882 32.6553 169.879Z" fill="black"/>
<path d="M44.2392 170.245C44.145 170.245 44.065 170.173 44.0574 170.078L42.423 149.652C42.4148 149.551 42.4897 149.463 42.59 149.455C42.6938 149.445 42.7784 149.522 42.7865 149.622L44.4209 170.048C44.4291 170.149 44.3542 170.237 44.2539 170.245C44.2488 170.245 44.2437 170.245 44.2392 170.245Z" fill="black"/>
<path d="M131.172 264H88.1519C86.8293 264 85.7199 263.019 85.5493 261.711L84.8738 254.372L84.6248 252.459L83.7573 245.825L102.999 245.476L116.012 245.242L121.772 247.581L127.012 249.715C129.053 250.447 130.71 251.969 131.613 253.938L132.274 256.1L133.554 260.274C134.358 262.016 133.085 264 131.172 264Z" fill="#FFAE44"/>
<path d="M68.4272 101.536C69.9321 154.309 83.9141 158.538 83.9011 246.147C93.3188 248.541 103.5 249.335 116.013 245.244C116.013 245.244 119.847 166.806 119.199 148.145C118.312 122.566 104.243 88.4958 104.243 88.4958L68.4272 101.536Z" fill="white"/>
<path d="M98.7437 248.31C93.9438 248.31 89.0573 247.646 83.8562 246.324C83.7753 246.304 83.7187 246.231 83.7187 246.147C83.7259 195.247 78.9626 172.284 74.7595 152.024C71.7335 137.437 68.8756 123.658 68.2447 101.541C68.2422 101.462 68.2905 101.391 68.3644 101.364L104.181 88.3242C104.274 88.2921 104.375 88.3354 104.412 88.426C104.553 88.7672 118.503 122.819 119.382 148.139C120.022 166.594 116.233 244.469 116.195 245.253C116.192 245.328 116.142 245.394 116.069 245.418C110.161 247.349 104.515 248.31 98.7437 248.31ZM84.0833 246.005C95.3669 248.851 105.173 248.573 115.837 245.11C116.01 241.535 119.645 166.244 119.017 148.151C118.171 123.794 105.188 91.3099 104.14 88.7274L68.6134 101.662C69.2508 123.669 72.1006 137.408 75.1169 151.95C79.3196 172.208 84.0823 195.165 84.0833 246.005Z" fill="black"/>
<path d="M116.479 237.594H116.477L96.2619 237.32C96.161 237.319 96.0806 237.236 96.0821 237.136C96.0831 237.036 96.1646 236.956 96.2644 236.956H96.2669L116.482 237.229C116.583 237.23 116.663 237.313 116.662 237.414C116.66 237.514 116.579 237.594 116.479 237.594ZM83.2517 125.028C83.2135 125.028 83.1748 125.017 83.1422 124.992C83.0618 124.932 83.0455 124.817 83.1056 124.737C90.8062 114.465 88.0541 105.195 88.0256 105.103C87.9956 105.006 88.0495 104.904 88.1458 104.875C88.242 104.845 88.3444 104.898 88.3739 104.995C88.4034 105.089 91.2089 114.536 83.3978 124.955C83.3617 125.003 83.3072 125.028 83.2517 125.028Z" fill="black"/>
<path d="M175.805 23.6158C168.139 24.2672 164.552 49.715 149.744 45.1081C125.166 37.4582 81.5357 23.5679 51.5503 45.5619C46.324 49.4001 41.3168 54.7919 37.014 61.7742C33.9712 66.7122 31.2807 72.4509 29.1079 78.9958C25.8249 88.8824 23.7216 100.621 23.3853 114.25H48.5128C48.5128 114.25 50.3278 92.8969 61.2981 73.9296C61.0258 84.6866 61.3302 102.773 65.2965 118.302C70.2772 107.812 85.2299 96.8792 95.9385 95.6674C110.037 94.0712 130.381 107.123 141.88 96.6444C140.37 89.8112 138.234 79.7911 136.126 70.7266C138.773 71.3298 141.789 71.8905 145.105 72.4671C148.051 72.974 151.244 73.5027 154.618 74.0845C154.66 74.0899 154.703 74.1006 154.746 74.1058C161.136 75.1576 166.848 72.435 171.786 67.9026C185.057 55.7152 192.701 30.4597 192.701 30.4597C192.701 30.4597 183.471 22.9592 175.805 23.6158Z" fill="#EE7C33"/>
<path d="M97.7027 38.515L99.2722 33.1457C111.605 36.1077 109.081 12.008 108.576 10.0059L88.8974 11.4373L88.6056 23.557L86.9023 33.5505C91.2329 45.6453 94.6832 43.929 97.7027 38.515Z" fill="white"/>
<path d="M93.1013 42.8304C90.9725 42.6547 88.8885 39.639 86.7306 33.612C86.7199 33.5824 86.7169 33.5504 86.7225 33.5198L88.4261 23.5265L88.7153 11.4328C88.7174 11.3391 88.7907 11.2622 88.8844 11.2556L108.563 9.82434C108.659 9.81568 108.731 9.87627 108.753 9.9613C109.07 11.2179 110.847 26.4806 105.608 31.779C104.013 33.3915 101.926 33.9256 99.3991 33.3625L97.8778 38.5661C97.8737 38.5789 97.8686 38.5916 97.862 38.6038C96.8426 40.4319 95.186 43.0003 93.1013 42.8304ZM87.0901 33.5341C89.1604 39.3014 91.1924 42.3065 93.1313 42.4663C94.5269 42.585 95.9567 41.2652 97.5331 38.4439L99.0972 33.0942C99.1242 33.0015 99.2194 32.9429 99.3151 32.9684C101.786 33.5616 103.814 33.0753 105.349 31.5224C110.323 26.4913 108.812 12.1869 108.431 10.1996L89.0758 11.6074L88.7882 23.5616L87.0901 33.5341Z" fill="black"/>
<path d="M112.925 8.16714C114.196 4.02462 107.089 2.08919 97.3932 0.337315C78.4509 -3.08534 80.334 20.5922 87.6097 23.7627C93.0072 26.1148 89.8266 17.273 89.8266 17.273C89.8266 17.273 94.0597 19.1787 94.6508 15.373C95.2419 11.5673 110.396 16.4157 112.925 8.16714ZM104.226 23.6298C104.129 23.6018 104.073 23.501 104.1 23.4042C104.128 23.3075 104.228 23.252 104.326 23.2785C105.087 23.4964 105.722 23.5371 106.067 23.389C106.372 23.2589 106.362 23.0011 106.182 22.7276C105.973 22.4123 105.561 22.0795 105.274 21.7479C104.558 20.9241 104.505 20.0224 104.461 19.2978C104.456 19.1975 104.532 19.111 104.633 19.1049C104.737 19.1059 104.82 19.1756 104.826 19.2764C104.868 19.9806 104.915 20.7785 105.55 21.5086C105.836 21.8398 106.243 22.1591 106.486 22.5264C106.795 22.9938 106.727 23.5035 106.211 23.725C105.662 23.9578 104.799 23.7932 104.226 23.6298Z" fill="black"/>
<path d="M101.601 19.55C102.029 19.55 102.377 19.2027 102.377 18.7742C102.377 18.3457 102.029 17.9984 101.601 17.9984C101.173 17.9984 100.825 18.3457 100.825 18.7742C100.825 19.2027 101.173 19.55 101.601 19.55Z" fill="black"/>
<path d="M99.6164 17.4516C99.5375 17.389 99.5243 17.2739 99.5869 17.195C100.12 16.5239 100.727 16.1741 101.391 16.1558C102.54 16.1263 103.429 17.1054 103.466 17.1471C103.532 17.2225 103.526 17.3376 103.45 17.4048C103.376 17.471 103.26 17.4649 103.193 17.3895C103.185 17.3809 102.383 16.4781 101.4 16.5209C100.849 16.5367 100.335 16.8401 99.873 17.4221C99.81 17.5011 99.6949 17.5134 99.6164 17.4516Z" fill="black"/>
<path d="M107.498 20.098C107.927 20.098 108.274 19.7506 108.274 19.3221C108.274 18.8937 107.927 18.5463 107.498 18.5463C107.07 18.5463 106.723 18.8937 106.723 19.3221C106.723 19.7506 107.07 20.098 107.498 20.098Z" fill="black"/>
<path d="M105.513 18C105.434 17.9374 105.421 17.8223 105.484 17.7434C105.959 17.1449 106.573 16.7031 107.344 16.7031C108.469 16.7031 109.326 17.6537 109.363 17.695C109.429 17.7703 109.423 17.8854 109.347 17.9526C109.272 18.0183 109.157 18.0127 109.09 17.9374C109.082 17.9287 108.303 17.0682 107.343 17.0682C107.327 17.0682 107.312 17.0687 107.297 17.0692C106.746 17.085 106.232 17.388 105.77 17.9704C105.707 18.0494 105.592 18.0618 105.513 18ZM99.2846 33.1663C97.2305 32.7401 95.35 30.8552 93.448 28.6321C93.448 28.6321 92.2147 32.8014 98.5263 35.4795L99.2846 33.1663Z" fill="black"/>
<path d="M98.4551 35.6476C92.0676 32.9373 93.2606 28.6237 93.2733 28.5804C93.3155 28.4407 93.4937 28.4051 93.587 28.5137C95.3614 30.5876 97.284 32.5651 99.3222 32.9878C99.4306 33.0105 99.4913 33.1213 99.4586 33.2235L98.7 35.5366C98.6648 35.6412 98.5502 35.6878 98.4551 35.6476ZM93.5554 29.0366C93.4235 30.0626 93.507 33.0784 98.4154 35.2327L99.0493 33.2999C97.1817 32.8309 95.4836 31.2591 93.5554 29.0366Z" fill="black"/>
<path d="M92.4094 19.9484C91.9427 21.5262 90.2833 22.4281 88.7054 21.9613C87.1206 21.4925 86.2188 19.833 86.6855 18.2552C87.1543 16.6705 88.8137 15.7686 90.3986 16.2375C91.9765 16.7042 92.8782 18.3637 92.4094 19.9484Z" fill="white"/>
<path d="M89.5495 22.2668C89.2531 22.2668 88.9517 22.2245 88.6533 22.1364C87.8407 21.8956 87.1701 21.3544 86.7653 20.6115C86.3611 19.8686 86.2704 19.0137 86.5103 18.2031C87.0062 16.5265 88.774 15.5692 90.4502 16.0621C92.1223 16.557 93.08 18.3238 92.5846 20.0005C92.1778 21.3747 90.9145 22.2668 89.5495 22.2668ZM89.552 16.2968C88.3407 16.2968 87.2205 17.0881 86.8606 18.307C86.6482 19.0234 86.7287 19.78 87.0861 20.4368C87.4441 21.0942 88.0372 21.5733 88.7572 21.7861C90.2353 22.225 91.7969 21.3768 92.2343 19.8966C92.6727 18.4134 91.8259 16.8498 90.3463 16.4124C90.082 16.334 89.8147 16.2968 89.552 16.2968Z" fill="black"/>
<path d="M104.77 28.7102C105.481 28.7102 106.057 28.1339 106.057 27.4229C106.057 26.712 105.481 26.1356 104.77 26.1356C104.059 26.1356 103.482 26.712 103.482 27.4229C103.482 28.1339 104.059 28.7102 104.77 28.7102Z" fill="black"/>
<path d="M76.1611 135.783L17.7715 125.547L18.8282 119.519L77.2178 129.755C78.8824 130.047 79.9953 131.633 79.7035 133.298C79.4117 134.962 77.8257 136.075 76.1611 135.783Z" fill="#CAD5FF"/>
<path d="M76.6963 136.013C76.5079 136.013 76.3185 135.996 76.1291 135.963L17.7397 125.727C17.6414 125.71 17.5744 125.616 17.5915 125.516L18.6486 119.488C18.6659 119.389 18.759 119.321 18.8599 119.339L77.2493 129.576C79.0176 129.886 80.1923 131.568 79.8832 133.329C79.6025 134.929 78.2143 136.013 76.6963 136.013ZM76.1922 135.604C77.7417 135.879 79.2462 134.847 79.5237 133.266C79.7985 131.7 78.7529 130.21 77.1861 129.935L18.9765 119.73L17.9826 125.399L76.1922 135.604Z" fill="black"/>
<path d="M75.104 141.811L16.7144 131.575L17.7711 125.547L76.1607 135.783C77.8253 136.075 78.9382 137.661 78.6464 139.326C78.3545 140.99 76.7686 142.103 75.104 141.811Z" fill="white"/>
<path d="M75.0726 141.991L16.6831 131.755C16.5839 131.738 16.5177 131.643 16.535 131.544L17.5915 125.516C17.6091 125.412 17.7129 125.347 17.8028 125.367L76.1922 135.604C77.9568 135.913 79.1359 137.591 78.8261 139.357C78.5167 141.121 76.8401 142.3 75.0726 141.991ZM75.1357 141.632C76.6942 141.907 78.1905 140.867 78.4666 139.294C78.7416 137.727 77.6961 136.238 76.1291 135.963L17.9194 125.758L16.926 131.427L75.1357 141.632Z" fill="black"/>
<path d="M74.0473 147.839L15.6577 137.603L16.7145 131.575L75.1041 141.811C76.7687 142.103 77.8815 143.689 77.5897 145.354C77.2979 147.018 75.7119 148.131 74.0473 147.839Z" fill="#CAD5FF"/>
<path d="M74.0158 148.019L15.6259 137.783C15.5276 137.766 15.4607 137.672 15.4778 137.572L16.5348 131.544C16.5516 131.444 16.6437 131.375 16.7461 131.395L75.1355 141.632C76.9038 141.942 78.0785 143.624 77.7694 145.385C77.4599 147.149 75.7834 148.328 74.0158 148.019ZM74.079 147.66C75.6359 147.936 77.1338 146.895 77.4099 145.322C77.6848 143.756 76.6391 142.266 75.0724 141.991L16.8627 131.786L15.8688 137.455L74.079 147.66Z" fill="black"/>
<path d="M15.6582 137.603L7.77817 136.221C2.78457 135.346 -0.553876 130.588 0.32154 125.595C1.19696 120.601 5.95474 117.262 10.9483 118.138L18.8284 119.519L15.6582 137.603Z" fill="white"/>
<path d="M15.6267 137.782L7.74634 136.401C2.66183 135.51 -0.749569 130.648 0.141468 125.563C1.03352 120.479 5.88993 117.065 10.9795 117.958L18.8599 119.339C18.9582 119.356 19.0251 119.45 19.008 119.551L15.838 137.634C15.8203 137.737 15.7201 137.8 15.6267 137.782ZM0.500938 125.626C-0.355476 130.512 2.92303 135.185 7.80948 136.041L15.5101 137.391L18.617 119.667L10.9164 118.317C6.00825 117.457 1.35412 120.761 0.500938 125.626Z" fill="black"/>
<path d="M15.5538 118.946L12.3838 137.029L15.6582 137.603L18.8282 119.52L15.5538 118.946Z" fill="#FFA186"/>
<path d="M15.6264 137.782L12.352 137.209C12.2546 137.192 12.1866 137.098 12.2038 136.997L15.3739 118.914C15.3907 118.815 15.4813 118.747 15.5852 118.766L18.8596 119.339C18.957 119.356 19.025 119.449 19.0078 119.551L15.8377 137.634C15.82 137.737 15.7198 137.8 15.6264 137.782ZM12.5949 136.881L15.5098 137.391L18.6168 119.667L15.7018 119.157L12.5949 136.881Z" fill="black"/>
<path d="M75.8002 147.627C76.7092 147.236 77.4069 146.397 77.5898 145.354C77.8433 143.908 77.0368 142.523 75.73 141.991L75.7534 141.857C77.1796 141.799 78.3954 140.759 78.6464 139.327C78.9003 137.878 78.0939 136.493 76.787 135.961L76.8105 135.827C78.238 135.77 79.4521 134.731 79.7034 133.297C79.9084 132.128 79.4203 130.996 78.5336 130.325C80.5648 131.616 86.6597 135.551 90.3199 138.546C92.1397 140.035 93.359 141.289 93.1817 141.872C93.0159 142.425 91.5029 143.137 89.409 143.879C85.1298 145.389 78.4231 147.014 75.8002 147.627Z" fill="white"/>
<path d="M75.627 147.685C75.5969 147.595 75.6412 147.497 75.7278 147.46C76.5901 147.087 77.2381 146.302 77.4101 145.322C77.6428 143.997 76.907 142.667 75.6611 142.16C75.5817 142.127 75.5353 142.044 75.5501 141.959L75.5735 141.825C75.5883 141.741 75.6601 141.678 75.7461 141.674C77.0485 141.622 78.2233 140.681 78.4666 139.296C78.6993 137.968 77.964 136.637 76.7181 136.13C76.6387 136.098 76.5924 136.014 76.6071 135.93L76.6305 135.796C76.6453 135.711 76.7171 135.648 76.8032 135.645C78.1252 135.592 79.2829 134.635 79.5236 133.266C79.711 132.197 79.2894 131.126 78.4233 130.471C78.3449 130.412 78.3276 130.302 78.3836 130.221C78.4391 130.141 78.5496 130.12 78.6311 130.171C80.461 131.334 86.7206 135.365 90.4355 138.405C93.3001 140.748 93.4742 141.536 93.3561 141.925C93.2486 142.284 92.7288 142.896 89.4701 144.051C85.1753 145.566 78.5089 147.182 75.8418 147.805C75.7434 147.826 75.655 147.77 75.627 147.685ZM76.1631 141.998C77.3429 142.663 78.0078 144.026 77.7695 145.385C77.6448 146.096 77.296 146.73 76.7736 147.21C79.8551 146.474 85.5414 145.05 89.3484 143.707C92.3591 142.639 92.933 142.066 93.0068 141.82C93.0684 141.617 92.9182 140.907 90.2043 138.687C87.0521 136.108 82.0516 132.807 79.5124 131.169C79.877 131.811 80.016 132.571 79.8831 133.329C79.6424 134.698 78.5726 135.743 77.2202 135.968C78.3999 136.633 79.0649 137.998 78.8261 139.359C78.5781 140.77 77.4666 141.781 76.1631 141.998Z" fill="black"/>
<path d="M89.4088 143.879C88.8514 143.074 88.5988 142.052 88.7814 141.011C88.9619 139.981 89.5362 139.116 90.3197 138.546C92.1395 140.034 93.3588 141.289 93.1815 141.872C93.0157 142.425 91.5027 143.137 89.4088 143.879Z" fill="black"/>
<path d="M49.8715 124.961C49.8715 124.961 46.5067 122.236 44.8296 119.526C42.7829 116.22 42.1411 113.873 41.6207 111.822C38.2536 111.752 33.3522 112.191 30.3058 113.4C30.5318 114.07 30.6817 114.903 30.6281 115.872C30.5552 117.137 30.1152 118.63 28.9859 120.299C25.3948 125.62 25.8052 129.625 25.8052 129.625C26.0394 136.667 27.8104 139.885 29.5648 137.588C30.327 140.116 31.4929 140.748 32.636 139.019C32.6592 138.976 32.6906 138.932 32.705 138.881C33.46 140.744 34.4937 141.081 35.5117 139.543C35.7621 139.161 35.9034 138.439 35.9671 137.503C36.7098 139.115 37.687 139.328 38.642 137.877C40.4507 135.141 36.3215 125.1 41.6718 125.065L49.8715 124.961Z" fill="white"/>
<path d="M32.6786 139.278C32.2005 139.941 31.7015 140.24 31.1979 140.164C30.5319 140.066 29.9449 139.306 29.4907 137.958C28.9413 138.543 28.4556 138.56 28.1292 138.454C26.7493 138.013 25.7886 134.632 25.6226 129.631C25.6063 129.477 25.2473 125.511 28.8344 120.197C29.8216 118.737 30.3639 117.279 30.4454 115.862C30.4922 115.021 30.3868 114.212 30.1322 113.458C30.1012 113.366 30.148 113.266 30.2381 113.23C32.7896 112.217 37.01 111.585 41.2595 111.632L41.6246 111.64C41.7065 111.641 41.7773 111.698 41.7972 111.777C42.2519 113.569 42.8741 116.022 44.9845 119.43C46.6256 122.081 49.9525 124.793 49.9861 124.82C50.1179 124.927 50.0442 125.142 49.8735 125.144L41.674 125.248C40.8792 125.253 40.2855 125.483 39.8568 125.951C38.7188 127.195 38.9418 129.894 39.1572 132.504C39.343 134.755 39.5187 136.882 38.7941 137.978C38.3094 138.714 37.8033 139.06 37.2804 139.029C36.8461 138.996 36.4479 138.693 36.0925 138.126C36.0075 138.836 35.8659 139.335 35.6643 139.643C34.6726 141.141 33.5148 141.065 32.6786 139.278ZM32.7045 138.699C32.7784 138.699 32.8456 138.744 32.8736 138.812C33.2519 139.745 33.7076 140.284 34.1567 140.329C34.6343 140.371 35.0742 139.873 35.3593 139.442C35.5757 139.112 35.7193 138.455 35.7845 137.491C35.7983 137.302 36.0536 137.256 36.1327 137.426C36.4917 138.205 36.898 138.634 37.3079 138.665C37.6857 138.69 38.0884 138.386 38.4896 137.777C39.1444 136.785 38.9739 134.721 38.7936 132.534C38.5716 129.846 38.342 127.066 39.5874 125.705C40.0813 125.165 40.7824 124.889 41.6704 124.883L49.3786 124.785C48.4464 123.984 46.0151 121.788 44.674 119.623C42.5864 116.251 41.9357 113.804 41.4779 112.002L41.2539 111.997C37.2178 111.985 33.0263 112.562 30.5319 113.507C30.7626 114.258 30.8558 115.056 30.8099 115.883C30.7244 117.366 30.1618 118.886 29.1368 120.402C25.6236 125.607 25.9825 129.567 25.9866 129.606C26.1674 135.042 27.2488 137.789 28.2402 138.107C28.6139 138.226 29.0095 138.014 29.4194 137.477C29.4612 137.423 29.5294 137.396 29.5971 137.409C29.6643 137.421 29.7193 137.47 29.7392 137.536C30.1557 138.916 30.6923 139.721 31.2509 139.803C31.7422 139.873 32.1908 139.361 32.4836 138.918C32.5116 138.868 32.5248 138.846 32.5289 138.832C32.5497 138.757 32.6164 138.703 32.6943 138.699C32.6979 138.699 32.701 138.699 32.7045 138.699Z" fill="black"/>
<path d="M29.5646 137.588C29.5646 137.588 28.6311 133.43 29.8445 130.409L29.5646 137.588Z" fill="white"/>
<path d="M29.5647 137.771C29.4812 137.771 29.4058 137.713 29.3865 137.628C29.3478 137.457 28.4547 133.38 29.6752 130.34C29.7134 130.247 29.8198 130.203 29.913 130.239C30.0061 130.277 30.0515 130.383 30.0143 130.477C28.8366 133.41 29.7337 137.507 29.7429 137.549C29.7648 137.647 29.7032 137.744 29.6044 137.767C29.5912 137.77 29.5779 137.771 29.5647 137.771Z" fill="black"/>
<path d="M32.7174 138.854C32.7174 138.854 31.784 134.696 32.9973 131.674L32.7174 138.854Z" fill="white"/>
<path d="M32.7179 139.036C32.6343 139.036 32.559 138.978 32.5396 138.894C32.5009 138.722 31.6074 134.645 32.8278 131.606C32.866 131.513 32.9724 131.469 33.0656 131.505C33.1588 131.543 33.2041 131.649 33.1669 131.743C31.9882 134.677 32.8869 138.773 32.8961 138.813C32.918 138.912 32.8563 139.009 32.7581 139.032C32.7443 139.035 32.7311 139.036 32.7179 139.036Z" fill="black"/>
<path d="M35.94 137.458C35.94 137.458 35.3712 134.924 35.6989 132.375L35.94 137.458Z" fill="white"/>
<path d="M35.762 137.498C35.7564 137.472 35.1902 134.904 35.5181 132.352C35.5309 132.252 35.6149 132.183 35.7223 132.194C35.8221 132.207 35.8929 132.298 35.8796 132.398C35.5604 134.887 36.1128 137.393 36.1184 137.418C36.1403 137.517 36.0787 137.614 35.9799 137.636C35.8856 137.658 35.7849 137.598 35.762 137.498Z" fill="black"/>
<path d="M23.8523 105.688C23.6205 108.456 23.4579 111.304 23.3848 114.248H48.5113C48.5113 114.248 48.7986 110.9 49.821 105.688H23.8523Z" fill="#EE7C33"/>
<path d="M53.5859 91.9178L53.2295 91.8394C53.2641 91.6816 56.8303 75.8817 69.3013 63.6872L69.5569 63.9479C57.1628 76.0671 53.6205 91.7605 53.5859 91.9178ZM136.125 70.7266C136.125 70.7266 136.408 64.2513 130.99 53.6173C130.99 53.6173 141.699 56.5268 145.104 72.467C141.789 71.8904 138.773 71.3298 136.125 70.7266Z" fill="#A34D16"/>
<path d="M25.8366 100.457L25.7446 100.81L48.7145 106.79L48.8065 106.437L25.8366 100.457Z" fill="black"/>
<path d="M250.584 46.3142V178.534C250.584 185.064 245.29 190.358 238.759 190.358H146.643C140.112 190.358 134.818 185.064 134.818 178.534V46.3142C134.818 39.7838 140.112 34.4899 146.643 34.4899H238.759C245.29 34.4899 250.584 39.7838 250.584 46.3142Z" fill="white"/>
<path d="M238.76 190.54H146.643C140.022 190.54 134.636 185.154 134.636 178.533V46.3141C134.636 39.6934 140.022 34.3075 146.643 34.3075H238.76C245.38 34.3075 250.766 39.6934 250.766 46.3141V178.533C250.766 185.154 245.38 190.54 238.76 190.54ZM146.643 34.6721C140.223 34.6721 135.001 39.8946 135.001 46.3141V178.533C135.001 184.953 140.223 190.175 146.643 190.175H238.76C245.179 190.175 250.401 184.953 250.401 178.533V46.3141C250.401 39.8946 245.179 34.6721 238.76 34.6721H146.643Z" fill="black"/>
<path d="M181.096 34.4612C182.098 35.4096 182.105 38.1844 182.979 40.6665C183.544 42.2733 184.93 41.4952 185.317 39.7979C185.819 42.9536 188.111 41.9734 188.225 39.9866C188.249 40.0324 190.267 43.029 190.862 38.765C191.007 41.4205 193.887 42.275 193.942 34.9296C193.955 33.3146 193.288 31.0979 190.873 29.2448C188.059 27.0849 183.654 26.7887 180.586 27.2071C177.233 27.6642 176.006 28.6046 175.281 34.4612H181.096Z" fill="white"/>
<path d="M186.779 42.0142C186.464 42.0142 185.685 41.866 185.283 40.4913C184.97 41.2138 184.462 41.6965 183.935 41.7265C183.649 41.7448 183.126 41.6343 182.807 40.727C182.449 39.7107 182.233 38.6354 182.042 37.6863C181.773 36.3508 181.54 35.1914 181.021 34.6435H175.281C175.228 34.6435 175.178 34.6211 175.144 34.5819C175.109 34.5427 175.093 34.4908 175.099 34.4388C175.823 28.5921 177.037 27.5071 180.561 27.0264C183.73 26.5936 188.133 26.9114 190.984 29.1003C193.739 31.2143 194.135 33.6608 194.125 34.9312C194.092 39.2728 193.061 40.8436 192.108 40.866C192.101 40.866 192.094 40.8665 192.086 40.8665C191.563 40.8665 191.108 40.4174 190.864 39.7291C190.627 40.6466 190.269 41.1374 189.778 41.2224C189.201 41.3146 188.662 40.8166 188.345 40.4439C188.146 41.3192 187.534 41.9775 186.826 42.0132C186.812 42.0137 186.796 42.0142 186.779 42.0142ZM185.497 39.7693C185.689 40.9775 186.184 41.6771 186.808 41.6486C187.358 41.6206 187.986 40.9735 188.043 39.976C188.053 39.7962 188.3 39.7343 188.387 39.9022C188.496 40.0753 189.196 40.9765 189.733 40.8594C190.167 40.7672 190.504 40.0147 190.681 38.7398C190.695 38.6471 190.773 38.5865 190.87 38.5829C190.963 38.587 191.039 38.6613 191.044 38.755C191.098 39.7387 191.555 40.5015 192.086 40.5015C192.091 40.5015 192.095 40.5015 192.099 40.5009C192.701 40.4872 193.727 39.2973 193.76 34.9281C193.769 33.726 193.392 31.4078 190.762 29.3895C188 27.2698 183.708 26.9643 180.61 27.3879C177.495 27.8131 176.227 28.5239 175.487 34.279C181.375 34.2974 181.122 34.234 181.222 34.3289C181.861 34.9332 182.11 36.1756 182.4 37.6145C182.588 38.5514 182.802 39.6135 183.151 40.6058C183.329 41.1114 183.609 41.3838 183.914 41.3625C184.336 41.338 184.909 40.7672 185.139 39.7576C185.183 39.5627 185.465 39.5701 185.497 39.7693Z" fill="black"/>
<path d="M190.862 38.765C190.862 38.765 191.122 37.6825 190.946 36.2L190.862 38.765Z" fill="white"/>
<path d="M190.82 38.9424C190.722 38.919 190.662 38.8207 190.685 38.7229C190.687 38.7122 190.935 37.6501 190.764 36.2214C190.753 36.1216 190.824 36.031 190.924 36.0188C191.02 36.005 191.115 36.0778 191.127 36.1786C191.305 37.6756 191.051 38.7621 191.039 38.808C191.015 38.9088 190.913 38.9657 190.82 38.9424Z" fill="black"/>
<path d="M188.233 40.0424C188.233 40.0424 188.746 37.9093 187.844 35.5313L188.233 40.0424Z" fill="white"/>
<path d="M188.191 40.2194C188.093 40.196 188.033 40.0977 188.056 39.9999C188.061 39.9791 188.543 37.8895 187.673 35.5962C187.637 35.502 187.685 35.3966 187.779 35.3609C187.874 35.3263 187.979 35.3732 188.014 35.4668C188.926 37.8696 188.433 39.9954 188.411 40.085C188.387 40.1858 188.284 40.2427 188.191 40.2194Z" fill="black"/>
<path d="M185.301 39.9907C185.301 39.9907 185.813 37.8575 184.911 35.4796L185.301 39.9907Z" fill="white"/>
<path d="M185.258 40.168C185.16 40.1446 185.1 40.0463 185.123 39.9485C185.128 39.9277 185.611 37.8375 184.74 35.5443C184.705 35.4501 184.752 35.3447 184.846 35.309C184.942 35.2739 185.046 35.3212 185.082 35.4149C185.993 37.8177 185.5 39.9439 185.478 40.0336C185.454 40.1344 185.351 40.1913 185.258 40.168Z" fill="black"/>
<path d="M177.068 34.4612C177.11 34.351 177.154 34.2458 177.19 34.1277C177.691 32.5035 177.497 30.7446 176.665 30.4879C175.833 30.2312 174.682 31.5751 174.181 33.1993C174.041 33.6531 173.973 34.0756 173.958 34.4612H177.068Z" fill="white"/>
<path d="M177.068 34.6435H173.957C173.853 34.6435 173.771 34.5575 173.775 34.4536C173.792 34.0254 173.87 33.5855 174.006 33.1455C174.505 31.5279 175.716 29.9994 176.719 30.3136C177.723 30.6237 177.863 32.5641 177.364 34.1817C177.335 34.2783 177.298 34.3724 177.239 34.5254C177.212 34.5967 177.144 34.6435 177.068 34.6435ZM174.152 34.2789H176.943C176.968 34.2128 176.993 34.1461 177.015 34.0743C177.5 32.5035 177.307 30.8772 176.611 30.6618C175.929 30.4577 174.831 31.7107 174.354 33.2535C174.249 33.5977 174.18 33.9419 174.152 34.2789Z" fill="black"/>
<path d="M180.479 33.8181C180.748 33.9769 180.939 34.2046 181.097 34.4613L180.479 33.8181Z" fill="white"/>
<path d="M180.941 34.557C180.774 34.2846 180.597 34.0997 180.386 33.9755C180.299 33.9241 180.27 33.8126 180.321 33.7255C180.372 33.6384 180.484 33.6109 180.571 33.6608C180.836 33.8166 181.052 34.0407 181.252 34.3655C181.305 34.4516 181.278 34.5641 181.192 34.6165C181.106 34.6693 180.993 34.6422 180.941 34.557Z" fill="black"/>
<path d="M162.196 50.7833V61.289C162.196 62.5028 161.212 63.4868 159.998 63.4868H149.493C148.279 63.4868 147.295 62.5028 147.295 61.289V50.7833C147.295 49.5695 148.279 48.5856 149.493 48.5856H159.998C161.212 48.5856 162.196 49.5695 162.196 50.7833Z" fill="#FFA186"/>
<path d="M237.305 53.6058H172.775C172.674 53.6058 172.592 53.5243 172.592 53.4235C172.592 53.3227 172.674 53.2412 172.775 53.2412H237.305C237.406 53.2412 237.487 53.3227 237.487 53.4235C237.487 53.5243 237.406 53.6058 237.305 53.6058ZM212.833 58.8314H172.775C172.674 58.8314 172.592 58.7499 172.592 58.6491C172.592 58.5483 172.674 58.4668 172.775 58.4668H212.833C212.933 58.4668 213.015 58.5483 213.015 58.6491C213.015 58.7499 212.933 58.8314 212.833 58.8314Z" fill="black"/>
<path d="M162.196 77.1855V87.6911C162.196 88.9049 161.212 89.8889 159.998 89.8889H149.493C148.279 89.8889 147.295 88.9049 147.295 87.6911V77.1855C147.295 75.9717 148.279 74.9877 149.493 74.9877H159.998C161.212 74.9877 162.196 75.9717 162.196 77.1855Z" fill="#75C675"/>
<path d="M237.305 80.0075H172.775C172.674 80.0075 172.592 79.926 172.592 79.8252C172.592 79.7244 172.674 79.6429 172.775 79.6429H237.305C237.406 79.6429 237.487 79.7244 237.487 79.8252C237.487 79.926 237.406 80.0075 237.305 80.0075ZM212.833 85.2336H172.775C172.674 85.2336 172.592 85.1521 172.592 85.0513C172.592 84.9505 172.674 84.869 172.775 84.869H212.833C212.933 84.869 213.015 84.9505 213.015 85.0513C213.015 85.1521 212.933 85.2336 212.833 85.2336Z" fill="black"/>
<path d="M162.196 103.588V114.093C162.196 115.307 161.212 116.291 159.998 116.291H149.493C148.279 116.291 147.295 115.307 147.295 114.093V103.588C147.295 102.374 148.279 101.39 149.493 101.39H159.998C161.212 101.39 162.196 102.374 162.196 103.588Z" fill="#EE7C33"/>
<path d="M237.305 106.41H172.775C172.674 106.41 172.592 106.328 172.592 106.227C172.592 106.127 172.674 106.045 172.775 106.045H237.305C237.406 106.045 237.487 106.127 237.487 106.227C237.487 106.328 237.406 106.41 237.305 106.41ZM212.833 111.636H172.775C172.674 111.636 172.592 111.554 172.592 111.453C172.592 111.353 172.674 111.271 172.775 111.271H212.833C212.933 111.271 213.015 111.353 213.015 111.453C213.015 111.554 212.933 111.636 212.833 111.636Z" fill="black"/>
<path d="M162.196 129.99V140.495C162.196 141.709 161.212 142.693 159.998 142.693H149.493C148.279 142.693 147.295 141.709 147.295 140.495V129.99C147.295 128.776 148.279 127.792 149.493 127.792H159.998C161.212 127.792 162.196 128.776 162.196 129.99Z" fill="#FFAE44"/>
<path d="M237.305 132.812H172.775C172.674 132.812 172.592 132.73 172.592 132.63C172.592 132.529 172.674 132.447 172.775 132.447H237.305C237.406 132.447 237.487 132.529 237.487 132.63C237.487 132.73 237.406 132.812 237.305 132.812ZM212.833 138.038H172.775C172.674 138.038 172.592 137.956 172.592 137.856C172.592 137.755 172.674 137.673 172.775 137.673H212.833C212.933 137.673 213.015 137.755 213.015 137.856C213.015 137.956 212.933 138.038 212.833 138.038Z" fill="black"/>
<path d="M159.998 169.278H149.493C148.181 169.278 147.113 168.21 147.113 166.897V156.392C147.113 155.08 148.181 154.012 149.493 154.012H159.998C161.311 154.012 162.379 155.08 162.379 156.392V166.897C162.379 168.21 161.311 169.278 159.998 169.278ZM149.493 154.377C148.382 154.377 147.477 155.281 147.477 156.392V166.897C147.477 168.009 148.382 168.913 149.493 168.913H159.998C161.11 168.913 162.014 168.009 162.014 166.897V156.392C162.014 155.281 161.11 154.377 159.998 154.377H149.493ZM237.305 159.214H172.775C172.674 159.214 172.592 159.133 172.592 159.032C172.592 158.931 172.674 158.85 172.775 158.85H237.305C237.406 158.85 237.487 158.931 237.487 159.032C237.487 159.133 237.406 159.214 237.305 159.214ZM212.833 164.44H172.775C172.674 164.44 172.592 164.358 172.592 164.257C172.592 164.157 172.674 164.075 172.775 164.075H212.833C212.933 164.075 213.015 164.157 213.015 164.257C213.015 164.358 212.933 164.44 212.833 164.44Z" fill="black"/>
<path d="M153.958 58.2122L151.903 56.2173C151.831 56.147 151.829 56.0315 151.899 55.9592C151.97 55.8874 152.085 55.8858 152.157 55.9556L154.083 57.8253L158.506 53.393C158.578 53.3217 158.693 53.3212 158.764 53.3925C158.836 53.4638 158.836 53.5793 158.765 53.6506L154.215 58.2102C154.144 58.2805 154.03 58.2818 153.958 58.2122Z" fill="black"/>
<path d="M153.958 83.7677L151.903 81.7728C151.831 81.7025 151.829 81.5869 151.899 81.5146C151.97 81.4428 152.085 81.4413 152.157 81.5111L154.083 83.3807L158.506 78.9479C158.578 78.8767 158.693 78.8762 158.764 78.9474C158.836 79.0187 158.836 79.1343 158.765 79.2056L154.215 83.7656C154.144 83.8359 154.03 83.8373 153.958 83.7677Z" fill="black"/>
<path d="M153.958 110.09L151.903 108.096C151.831 108.025 151.829 107.91 151.899 107.837C151.97 107.766 152.085 107.764 152.157 107.834L154.083 109.703L158.506 105.271C158.578 105.2 158.693 105.199 158.764 105.271C158.836 105.342 158.836 105.458 158.765 105.529L154.215 110.088C154.144 110.159 154.03 110.16 153.958 110.09Z" fill="black"/>
<path d="M153.958 136.479L151.903 134.484C151.831 134.414 151.829 134.298 151.899 134.226C151.97 134.154 152.085 134.153 152.157 134.222L154.083 136.092L158.506 131.66C158.578 131.588 158.693 131.588 158.764 131.659C158.836 131.73 158.836 131.846 158.765 131.917L154.215 136.477C154.144 136.547 154.03 136.549 153.958 136.479Z" fill="black"/>
<path d="M153.958 163.723L151.903 161.727C151.831 161.657 151.829 161.541 151.899 161.469C151.97 161.397 152.085 161.395 152.157 161.466L154.083 163.336L158.506 158.903C158.578 158.832 158.693 158.831 158.764 158.902C158.836 158.974 158.836 159.089 158.765 159.161L154.215 163.721C154.144 163.791 154.03 163.792 153.958 163.723Z" fill="black"/>
</svg>
