<svg className="logo" 
  xmlns="http://www.w3.org/2000/svg" width="152" height="48" viewBox="0 0 152 48" fill="none">
    <path d="M98.6855 15.8384H102.85V35.7718H98.6855V15.8384Z" fill="#252E57" />
    <path d="M126.16 19.6338V15.8384H151.586V19.6338H140.951V35.702H136.801V19.6338H126.16Z" fill="#252E57" />
    <path d="M99.5981 13.2668L100.76 14.4286L101.922 13.2668C101.281 12.6258 100.239 12.6258 99.5981 13.2668Z" fill="#EE7C33" />
    <path d="M98.0488 11.7177L98.8234 12.4922C99.8923 11.4233 101.627 11.4233 102.696 12.4922L103.471 11.7177C101.974 10.2209 99.5457 10.2209 98.0488 11.7177Z" fill="#EE7C33" />
    <path d="M96.5 10.1686L97.2746 10.9431C99.1993 9.01837 102.321 9.01837 104.246 10.9431L105.02 10.1686C102.667 7.81588 98.8527 7.81588 96.5 10.1686Z" fill="#EE7C33" />
    <rect x="107.675" y="17.5551" width="13.7338" height="16.6586" stroke="#252E57" stroke-width="3.43345" />
    <path d="M15.6659 0C16.185 0.233405 16.6885 0.442116 17.177 0.683487C19.1484 1.65535 21.0412 2.76342 22.817 4.07384C23.7288 4.74697 24.5975 5.47268 25.3907 6.27884C26.5044 7.41082 27.4831 8.65432 28.1153 10.1408C28.3376 10.6626 28.3839 11.2202 28.3596 11.773C28.2732 13.747 27.4799 15.4231 26.1777 16.8641C24.7483 18.4454 22.9843 19.5375 21.0781 20.421C19.4782 21.1626 17.8093 21.6971 16.1151 22.1679C14.9417 22.4945 13.8885 23.0649 13.111 24.0471C12.3821 24.9688 12.3884 25.9789 12.884 26.9993C13.4589 28.1831 14.4069 29.0386 15.4106 29.8321C16.683 30.8374 18.0543 31.6985 19.395 32.6034C21.0993 33.7537 22.8413 34.8435 24.5943 35.9157C27.3629 37.6077 30.177 39.22 33.0264 40.7694C34.9287 41.8034 36.8451 42.8119 38.7858 43.7703C41.4821 45.1022 44.2043 46.3783 46.9634 47.5748C47.1103 47.6386 47.3891 47.6712 47.3192 47.8696C47.2446 48.0815 46.9815 47.9859 46.8095 47.9238C45.9502 47.6155 45.091 47.3048 44.2388 46.9742C40.7344 45.6176 37.2959 44.1048 33.9014 42.4853C30.5987 40.9089 27.3676 39.1954 24.1867 37.3799C21.404 35.7915 18.6889 34.0907 16.0382 32.2872C13.1927 30.3506 10.4437 28.2827 7.80715 26.0601C6.18608 24.6932 4.62941 23.2569 3.09866 21.7887C2.26535 20.9905 1.50194 20.1262 0.686692 19.3113C0.28221 18.9058 0.123559 18.357 0.0403059 17.8081C-0.153688 16.5383 0.357608 15.529 1.46581 14.8997C1.47524 14.8941 1.48466 14.8909 1.49252 14.8846C2.12555 14.4257 2.81827 14.4329 3.55184 14.5603C5.12186 14.8336 6.67539 15.1729 8.21478 15.5872C10.0078 16.0691 11.8386 16.1241 13.6772 15.9743C15.5551 15.8214 17.2359 15.1204 18.7462 13.9995C19.9408 13.1137 20.7317 11.9443 20.9336 10.4363C21.1087 9.13069 20.8331 7.884 20.3273 6.68272C19.5623 4.86646 18.4234 3.30033 17.1715 1.80829C16.7183 1.2682 16.2573 0.736063 15.7539 0.242168C15.7052 0.194372 15.6384 0.151355 15.6659 0Z" fill="#EE7C33" />
    <path d="M42.0939 19.4073C42.0939 20.2965 42.1001 21.1864 42.0892 22.0763C42.0861 22.3285 42.172 22.4174 42.4218 22.415C43.6007 22.4047 44.7796 22.4182 45.9577 22.4039C46.4012 22.3983 46.8407 22.323 47.26 22.1628C47.6605 22.0089 48.0282 21.8003 48.2898 21.4418C48.9807 20.4956 48.969 19.443 48.72 18.3651C48.6208 17.94 48.3811 17.5839 48.0665 17.2793C47.4154 16.648 46.5964 16.4973 45.7493 16.4766C44.6516 16.4505 43.5531 16.4774 42.4554 16.4647C42.1829 16.4616 42.083 16.5433 42.0876 16.8296C42.1033 17.6886 42.0931 18.5476 42.0939 19.4073ZM36.3906 23.3977C36.3906 19.6223 36.3906 15.8469 36.3906 12.0714C36.3906 11.6162 36.3922 11.6154 36.8481 11.6154C39.9117 11.6146 42.9761 11.5987 46.0397 11.6217C47.7862 11.6344 49.4984 11.8684 51.0692 12.7306C53.1116 13.8513 54.303 15.5827 54.6083 17.9138C54.8019 19.3947 54.7074 20.8564 54.0602 22.2357C53.3076 23.8395 52.0771 24.9158 50.4665 25.5654C50.1581 25.6899 49.8411 25.7962 49.5218 25.8866C49.2727 25.9564 49.2165 26.0421 49.3641 26.2864C51.0793 29.1187 52.7852 31.9567 54.4904 34.7954C54.5661 34.9207 54.7347 35.0563 54.6551 35.1943C54.577 35.3292 54.3756 35.253 54.2304 35.253C52.4261 35.2578 50.6218 35.2506 48.8176 35.2617C48.5529 35.2633 48.3991 35.1792 48.2656 34.9437C46.7002 32.1875 45.1216 29.4392 43.5593 26.6822C43.418 26.4339 43.2619 26.3213 42.9855 26.3475C42.795 26.3665 42.6021 26.3617 42.4109 26.349C42.1798 26.334 42.0783 26.4212 42.09 26.6655C42.104 26.9518 42.0931 27.2382 42.0931 27.5253C42.0931 29.9595 42.0939 32.3945 42.0931 34.8303C42.0931 35.2522 42.0892 35.2554 41.6692 35.2554C40.0562 35.2562 38.444 35.2562 36.831 35.2554C36.3922 35.2554 36.3906 35.2538 36.3906 34.816C36.3906 31.0096 36.3906 27.2041 36.3906 23.3977Z" fill="#EE7C33" />
    <path d="M65.1264 24.5128C66.1087 24.5128 67.0917 24.5128 68.0739 24.5128C68.7499 24.5128 68.764 24.512 68.7059 23.8377C68.629 22.9588 68.3055 22.1997 67.5918 21.6426C66.8687 21.0791 66.0474 20.8794 65.1453 20.8929C63.1306 20.9238 61.7699 22.1561 61.5273 24.176C61.4912 24.4756 61.5893 24.5192 61.8445 24.5168C62.9382 24.5073 64.0319 24.5128 65.1264 24.5128ZM67.9522 26.9259C65.9351 26.9259 63.9189 26.9251 61.9018 26.9259C61.4802 26.9259 61.4457 26.9599 61.4896 27.3815C61.5454 27.9117 61.6537 28.4315 61.8539 28.9268C62.219 29.8342 62.8927 30.419 63.8121 30.6631C65.1688 31.0244 66.4494 30.9151 67.4952 29.827C67.7677 29.5433 67.971 29.2153 68.0904 28.8396C68.1571 28.6296 68.2827 28.5623 68.4963 28.5631C70.3006 28.5694 72.1041 28.5655 73.9083 28.5678C74.2483 28.5678 74.2726 28.6011 74.1871 28.9514C73.6131 31.2963 72.2666 33.0698 70.1702 34.2022C67.1223 35.8497 63.9589 35.8988 60.8262 34.5033C58.2744 33.3661 56.774 31.2709 56.1333 28.5615C55.6819 26.6517 55.7062 24.7276 56.2244 22.8305C57.0198 19.9214 58.8209 17.9022 61.6584 16.9362C64.4229 15.9947 67.1969 16.0645 69.857 17.3451C72.4872 18.6114 73.9405 20.8026 74.4312 23.6673C74.5961 24.6277 74.6158 25.5953 74.4658 26.5653C74.4218 26.8474 74.3095 26.9322 74.0332 26.9314C72.0059 26.9211 69.9794 26.9259 67.9522 26.9259Z" fill="#EE7C33" />
    <path d="M84.7937 29.7167C85.0221 28.9856 85.252 28.2545 85.4787 27.5226C86.2857 24.9152 87.0919 22.3078 87.8981 19.7004C88.1682 18.8284 88.4438 17.9579 88.7004 17.0811C88.7744 16.8302 88.902 16.7434 89.1578 16.7442C90.9569 16.753 92.7559 16.7482 94.5549 16.7498C94.9234 16.7506 94.9391 16.7824 94.8108 17.1448C92.8527 22.6654 90.8939 28.1852 88.9358 33.7058C88.761 34.1988 88.5752 34.6885 88.4123 35.1847C88.3414 35.4005 88.2359 35.4985 87.9989 35.4977C85.8133 35.4905 83.6285 35.4905 81.4429 35.4977C81.2185 35.4977 81.1233 35.4021 81.0516 35.2006C80.0131 32.2603 78.9684 29.3224 77.9252 26.3838C76.83 23.3001 75.7341 20.2165 74.6381 17.1336C74.5121 16.7792 74.5279 16.7498 74.9058 16.7498C76.7048 16.7482 78.5039 16.7522 80.3029 16.745C80.5572 16.7434 80.6792 16.831 80.7572 17.0827C81.698 20.1002 82.6499 23.1138 83.5978 26.1281C83.9458 27.2343 84.2914 28.3405 84.6386 29.4467C84.6662 29.5343 84.6985 29.6195 84.7284 29.7055C84.7504 29.7095 84.7717 29.7127 84.7937 29.7167Z" fill="#EE7C33" />
  </svg> 

