<svg width="252" height="265" viewBox="0 0 252 265" fill="none" xmlns="http://www.w3.org/2000/svg">
<path d="M23.57 116.561C22.9813 116.441 22.386 116.297 21.8003 116.134C21.7039 116.107 21.648 116.008 21.6747 115.912C21.7014 115.815 21.8023 115.76 21.8972 115.786C22.4748 115.947 23.062 116.088 23.6427 116.207C23.7406 116.227 23.8036 116.323 23.7834 116.421C23.763 116.52 23.6664 116.582 23.57 116.561ZM18.4808 114.969C17.4133 114.515 16.3554 113.985 15.3369 113.393C15.2506 113.343 15.2213 113.232 15.2713 113.146C15.3217 113.06 15.4312 113.03 15.5185 113.08C16.5244 113.664 17.5687 114.188 18.6221 114.636C18.7139 114.675 18.7568 114.781 18.7179 114.873C18.6779 114.967 18.5694 115.007 18.4808 114.969ZM12.4063 111.45C11.474 110.749 10.5715 109.985 9.72346 109.177C9.65132 109.108 9.6483 108.994 9.71691 108.922C9.78602 108.849 9.90054 108.847 9.97268 108.915C10.8106 109.713 11.7026 110.469 12.6232 111.161C12.7034 111.221 12.7191 111.334 12.6591 111.414C12.5984 111.495 12.4844 111.509 12.4063 111.45ZM7.32061 106.611C6.5516 105.688 5.86049 104.746 5.23154 103.783C5.17705 103.7 5.20026 103.588 5.284 103.533C5.36825 103.479 5.47974 103.502 5.53423 103.586C6.16019 104.545 6.84738 105.478 7.59807 106.379C7.66214 106.456 7.65155 106.57 7.57487 106.634C7.49865 106.697 7.38544 106.689 7.32061 106.611ZM3.47795 100.737C2.9543 99.6983 2.48058 98.6149 2.06993 97.5169C2.03513 97.4233 2.08255 97.3192 2.17588 97.2843C2.27072 97.2495 2.37414 97.2967 2.40895 97.3903C2.81455 98.4759 3.28322 99.5472 3.80082 100.574C3.84572 100.664 3.8099 100.772 3.7206 100.817C3.63364 100.862 3.52365 100.828 3.47795 100.737ZM1.01708 94.1636C0.728007 93.0336 0.496953 91.874 0.329969 90.7172C0.315843 90.6186 0.384453 90.5268 0.483332 90.5127C0.581202 90.499 0.674027 90.5669 0.688153 90.6658C0.853119 91.8097 1.08165 92.9566 1.36719 94.0743C1.39191 94.1709 1.33389 94.2693 1.23703 94.294C1.14261 94.3192 1.04191 94.2617 1.01708 94.1636ZM0.199307 87.3907C0.102446 87.3907 0.0222335 87.3137 0.0187021 87.2161C-0.020423 86.0838 0.000698277 84.9013 0.0928613 83.7019C0.099924 83.6025 0.184677 83.5261 0.286583 83.5355C0.386471 83.5431 0.461135 83.6301 0.453063 83.7296C0.364372 84.8896 0.339767 86.0546 0.379913 87.2035C0.383444 87.3034 0.305249 87.3871 0.205361 87.3904C0.203343 87.3907 0.201325 87.3907 0.199307 87.3907ZM0.704296 80.4295C0.606426 80.4106 0.542357 80.3158 0.561023 80.2176C0.781482 79.075 1.07055 77.9282 1.41965 76.8091C1.44942 76.714 1.5488 76.6607 1.64617 76.6903C1.74152 76.7201 1.79449 76.8215 1.76472 76.9168C1.41965 78.023 1.13412 79.1567 0.916179 80.2863C0.89786 80.3813 0.806281 80.4484 0.704296 80.4295ZM2.74191 73.7541C2.65009 73.7142 2.60822 73.6076 2.64807 73.5161C3.11371 72.4486 3.64393 71.3917 4.22408 70.3749C4.27403 70.2875 4.38552 70.2584 4.47077 70.3074C4.55755 70.3569 4.58731 70.4674 4.53787 70.554C3.96427 71.5597 3.44011 72.6049 2.98002 73.6606C2.93957 73.753 2.83199 73.7937 2.74191 73.7541ZM6.16786 67.6728C6.08714 67.6142 6.06898 67.5012 6.1275 67.4203C6.81309 66.472 7.5567 65.5527 8.33765 64.6881C8.40525 64.6139 8.51976 64.6084 8.59292 64.6751C8.66707 64.7421 8.67313 64.8564 8.60603 64.9305C7.83367 65.7854 7.09863 66.6943 6.4201 67.6322C6.36054 67.7147 6.24698 67.7302 6.16786 67.6728ZM10.8389 62.4537C10.7723 62.379 10.7793 62.2647 10.8545 62.1985C11.3065 61.7984 11.7772 61.4067 12.2524 61.034C12.3301 60.9728 12.4441 60.9861 12.5062 61.0647C12.5677 61.1434 12.5541 61.257 12.4754 61.3185C12.0057 61.6868 11.5411 62.074 11.0936 62.4694C11.0173 62.537 10.9029 62.5269 10.8389 62.4537Z" fill="black"/>
<path d="M196.063 257.95C195.98 257.95 195.906 257.893 195.887 257.809L179.927 187.506C179.905 187.409 179.966 187.312 180.063 187.29C180.16 187.268 180.258 187.329 180.28 187.426L196.24 257.729C196.261 257.827 196.2 257.923 196.103 257.946C196.09 257.949 196.076 257.95 196.063 257.95Z" fill="black"/>
<path d="M119.097 257.946C119 257.923 118.939 257.827 118.96 257.729L134.92 187.426C134.942 187.329 135.042 187.268 135.136 187.29C135.234 187.312 135.295 187.409 135.273 187.506L119.313 257.809C119.291 257.908 119.192 257.968 119.097 257.946Z" fill="black"/>
<path d="M221.94 74.546L199.902 183.104C199.387 185.642 197.156 187.466 194.566 187.466H108.781C105.338 187.466 102.76 184.311 103.445 180.938L125.483 72.3794C125.998 69.8416 128.229 68.0177 130.819 68.0177H216.604C220.046 68.0177 222.625 71.1723 221.94 74.546Z" fill="white"/>
<path d="M194.566 187.647H108.781C105.221 187.647 102.56 184.384 103.267 180.902L125.305 72.3435C125.835 69.7322 128.154 67.8369 130.819 67.8369H216.604C220.163 67.8369 222.824 71.0994 222.117 74.5819L200.079 183.14C199.549 185.751 197.23 187.647 194.566 187.647ZM130.819 68.1986C128.326 68.1986 126.156 69.972 125.659 72.4154L103.621 180.974C102.96 184.233 105.45 187.285 108.781 187.285H194.566C197.059 187.285 199.229 185.512 199.725 183.068L221.763 74.51C222.426 71.2463 219.929 68.1986 216.604 68.1986H130.819Z" fill="black"/>
<path d="M158.246 62.3512C158.246 69.5228 164.05 75.3268 171.222 75.3268C178.376 75.3268 184.18 69.5228 184.18 62.3512C184.18 55.1962 178.376 49.3755 171.222 49.3755C164.05 49.3755 158.246 55.1962 158.246 62.3512Z" fill="black"/>
<path d="M152.426 235.673L154.926 240.572L139.173 247.124L132.306 233.096L152.426 235.673Z" fill="white"/>
<path d="M139.172 247.304C139.105 247.304 139.041 247.267 139.01 247.203L132.142 233.176C132.113 233.116 132.119 233.045 132.158 232.991C132.196 232.937 132.258 232.909 132.328 232.917L152.449 235.493C152.508 235.501 152.559 235.537 152.587 235.59L155.086 240.49C155.11 240.534 155.113 240.587 155.095 240.634C155.078 240.681 155.041 240.719 154.995 240.739L139.242 247.29C139.219 247.3 139.196 247.304 139.172 247.304ZM132.615 233.319L139.26 246.891L154.676 240.48L152.308 235.84L132.615 233.319Z" fill="black"/>
<path d="M90.5943 237.934L88.9309 244.162L71.5259 242.92L75.016 229.724L90.5943 237.934Z" fill="white"/>
<path d="M88.9308 244.343C88.9268 244.343 88.9222 244.342 88.9177 244.342L71.5135 243.101C71.3995 243.093 71.322 242.983 71.3515 242.874L74.8411 229.677C74.869 229.568 74.9944 229.508 75.0999 229.564L90.6783 237.774C90.753 237.813 90.7903 237.899 90.7686 237.98L89.1053 244.208C89.0842 244.288 89.012 244.343 88.9308 244.343ZM71.7566 242.755L88.7946 243.971L90.3822 238.026L75.1321 229.989L71.7566 242.755Z" fill="black"/>
<path d="M208.556 139.342C191.568 151.989 154.654 145.941 154.654 145.941V145.55C135.622 146.8 100.159 145.248 106.515 115.175C108.92 103.779 112.989 95.0417 117.852 88.3424C120.986 84.0184 124.451 80.5473 128.017 77.7574C143.565 65.5731 160.974 66.3669 160.974 66.3669C160.974 66.3669 176.458 64.9808 191.331 74.6181C196.372 77.8818 201.342 82.4132 205.612 88.6919C210.31 95.5867 214.166 104.596 216.351 116.348C216.6 117.669 216.766 118.936 216.855 120.151C217.518 129.113 214.1 135.22 208.556 139.342Z" fill="#EE7C33"/>
<path d="M187.262 121.276C186.178 123.213 183.294 124.41 179.668 125.126C180.326 124.338 180.906 123.486 181.404 122.585C183.335 119.079 183.53 115.53 183.311 111.639C183.234 110.342 183.323 108.985 183.696 107.741C186.581 112.948 188.82 118.504 187.262 121.276Z" fill="black"/>
<path d="M156.493 58.3118L154.601 66.6925L158.334 73.4867L165.805 66.2978L168.809 54.0939L156.493 58.3118Z" fill="white"/>
<path d="M158.176 73.5736L154.442 66.7797C154.421 66.7411 154.415 66.6959 154.424 66.6528L156.317 58.2718C156.331 58.2106 156.376 58.1609 156.435 58.1406L168.751 53.9228C168.813 53.9012 168.883 53.9157 168.932 53.9604C168.981 54.005 169.001 54.0727 168.985 54.137L165.981 66.3412C165.973 66.3743 165.955 66.4045 165.931 66.4282L158.46 73.6168C158.374 73.6996 158.234 73.6776 158.176 73.5736ZM154.793 66.6657L158.379 73.1926L165.642 66.2039L168.555 54.3721L156.647 58.45L154.793 66.6657Z" fill="black"/>
<path d="M176.387 125.636C173.064 126.021 169.433 126.121 166.104 126.092V124.593C166.104 124.593 172.27 123.545 176.387 125.636Z" fill="white"/>
<path d="M166.102 126.273C166.003 126.272 165.923 126.191 165.923 126.092V124.593C165.923 124.505 165.987 124.43 166.074 124.415C166.328 124.372 172.347 123.381 176.469 125.474C176.54 125.51 176.579 125.589 176.565 125.667C176.551 125.746 176.487 125.806 176.408 125.815C173.065 126.203 169.44 126.301 166.102 126.273ZM166.285 125.913C169.825 125.939 173.001 125.809 175.721 125.527C172.094 124.006 167.201 124.616 166.285 124.748V125.913Z" fill="black"/>
<path d="M143.684 147.558L131.944 191.479C128.568 191.503 125.268 191.189 122.141 190.277C120.541 195.347 118.563 200.276 116.312 205.103C114.446 209.113 112.385 213.052 110.199 216.95C105.721 224.923 100.704 232.73 95.6575 240.572C87.4359 236.337 80.5412 232.51 71.5259 227.938C76.1283 213.769 94.5558 155.626 111.556 149.732C117.817 147.558 135.581 147.795 143.684 147.558Z" fill="white"/>
<path d="M95.5753 240.733C91.9733 238.877 88.5529 237.062 85.2449 235.305C80.9508 233.026 76.5103 230.668 71.4448 228.099C71.3651 228.059 71.3272 227.966 71.3545 227.882C76.8337 211.03 94.7426 155.37 111.497 149.561C116.58 147.796 129.005 147.614 138.078 147.482C140.247 147.45 142.12 147.423 143.679 147.377C143.731 147.377 143.791 147.401 143.826 147.446C143.861 147.491 143.874 147.549 143.859 147.605L132.119 191.526C132.098 191.605 132.027 191.66 131.946 191.66C128.257 191.68 125.098 191.306 122.26 190.499C120.74 195.29 118.848 200.094 116.477 205.18C114.735 208.924 112.733 212.803 110.358 217.038C105.826 225.106 100.734 233.018 95.8099 240.67C95.7594 240.748 95.6578 240.776 95.5753 240.733ZM71.746 227.846C76.757 230.39 81.1576 232.726 85.4145 234.986C88.6764 236.718 92.0484 238.508 95.5949 240.336C100.488 232.732 105.543 224.871 110.042 216.861C112.413 212.634 114.41 208.763 116.149 205.027C118.541 199.896 120.445 195.054 121.969 190.222C121.998 190.129 122.099 190.075 122.192 190.103C125.272 191.002 128.596 191.323 131.805 191.299L143.447 147.746C141.935 147.787 140.142 147.814 138.083 147.844C129.035 147.976 116.644 148.157 111.616 149.903C93.7358 156.102 75.0529 219.374 71.746 227.846Z" fill="black"/>
<path d="M89.3874 223.701C89.3758 223.701 89.3632 223.699 89.3511 223.697C89.2532 223.677 89.1901 223.581 89.2103 223.484C94.3111 198.511 106.155 180.03 115.193 168.924C124.987 156.888 133.693 150.675 133.779 150.614C133.86 150.556 133.974 150.575 134.032 150.657C134.089 150.739 134.07 150.852 133.988 150.909C133.902 150.97 125.229 157.162 115.465 169.162C106.456 180.235 94.6497 198.661 89.5645 223.556C89.5468 223.642 89.4716 223.701 89.3874 223.701Z" fill="black"/>
<path d="M193.789 148.387C200.259 171.54 194.373 186.244 167.39 186.519L140.858 186.822C147.54 199.364 154.028 217.06 156.087 234.58L131.28 241.983C131.28 241.983 87.6997 168.937 108.488 155.679C124.889 145.22 193.789 148.387 193.789 148.387Z" fill="white"/>
<path d="M131.124 242.076C131.015 241.893 120.128 223.575 111.921 203.872C106.37 190.545 96.2999 163.238 108.391 155.527C124.652 145.157 193.108 148.174 193.796 148.207C193.875 148.21 193.942 148.263 193.962 148.338C197.666 161.591 197.135 171.139 192.337 177.528C187.86 183.491 179.467 186.576 167.391 186.699L141.157 187C148.822 201.472 154.465 219.228 156.266 234.559C156.276 234.646 156.222 234.728 156.138 234.754L131.331 242.156C131.253 242.18 131.167 242.148 131.124 242.076ZM171.2 148.134C149.566 148.134 118.754 149.347 108.586 155.832C97.9525 162.613 104.712 185.624 112.255 203.733C120.102 222.573 130.403 240.144 131.364 241.769L155.889 234.451C154.062 219.103 148.389 201.342 140.698 186.907C140.669 186.852 140.67 186.784 140.703 186.73C140.734 186.676 140.793 186.642 140.856 186.641L167.387 186.338C179.345 186.216 187.642 183.179 192.048 177.31C196.758 171.038 197.282 161.633 193.65 148.562C192.438 148.51 183.24 148.134 171.2 148.134Z" fill="black"/>
<path d="M97.9146 257.803C97.8317 258.2 97.4822 258.478 97.0794 258.478H86.8558C86.5181 258.478 86.216 258.283 86.0739 257.981L84.7707 255.167C84.5457 254.687 83.9534 254.521 83.515 254.818L78.3203 258.33C78.1781 258.425 78.0122 258.478 77.8405 258.478H56.1196C55.8175 258.478 55.5214 258.318 55.3733 258.052C50.9959 250.156 71.7987 241.834 71.7987 241.834C76.8335 242.864 81.4122 242.858 85.4993 241.745C87.0631 241.318 88.5558 240.738 89.9774 239.986C95.3735 242.319 97.4408 246.46 98.1042 250.239C98.6728 253.509 98.193 256.506 97.9146 257.803ZM162.745 257.803C162.663 258.2 162.313 258.478 161.91 258.478H151.681C151.349 258.478 151.047 258.283 150.905 257.981L149.602 255.167C149.377 254.687 148.778 254.521 148.34 254.818L143.145 258.33C143.009 258.425 142.837 258.478 142.665 258.478H120.95C120.648 258.478 120.352 258.318 120.204 258.052C115.821 250.156 136.624 241.834 136.624 241.834C142.097 242.805 146.646 242.77 150.342 241.816C152.001 241.383 153.487 240.773 154.808 239.986C160.204 242.313 162.266 246.46 162.929 250.239C163.498 253.515 163.018 256.506 162.745 257.803Z" fill="#FFAE44"/>
<path d="M54.7788 256.052C54.8175 256.719 55.0041 257.388 55.3736 258.054C55.5208 258.32 55.8187 258.476 56.1222 258.476H77.8395C78.0105 258.476 78.1777 258.425 78.3194 258.329L81.6859 256.052H54.7788ZM85.1818 256.052L86.076 257.98C86.2164 258.283 86.5196 258.476 86.8531 258.476H97.0793C97.4848 258.476 97.8324 258.198 97.917 257.802C98.0065 257.382 98.117 256.781 98.2065 256.052H85.1818ZM150.01 256.052L150.904 257.98C151.045 258.283 151.348 258.476 151.681 258.476H161.908C162.313 258.476 162.661 258.198 162.745 257.802C162.835 257.382 162.945 256.781 163.035 256.052H150.01ZM119.607 256.052C119.646 256.719 119.832 257.388 120.202 258.054C120.349 258.32 120.647 258.476 120.951 258.476H142.668C142.839 258.476 143.006 258.425 143.148 258.329L146.514 256.052H119.607Z" fill="#AC6407"/>
<path d="M220.945 145.89H30.5967V149.585H220.945V145.89Z" fill="black"/>
<path d="M18.8718 264.857C18.8557 264.857 18.8395 264.854 18.8229 264.85C18.727 264.823 18.6705 264.723 18.6978 264.627L51.3399 148.247C51.3666 148.151 51.4645 148.095 51.5629 148.122C51.6587 148.149 51.7152 148.248 51.688 148.345L19.0459 264.725C19.0237 264.804 18.951 264.857 18.8718 264.857ZM234.069 264.857C233.989 264.857 233.917 264.804 233.895 264.725L201.253 148.345C201.226 148.248 201.282 148.149 201.378 148.122C201.476 148.095 201.574 148.151 201.601 148.247L234.243 264.627C234.27 264.723 234.213 264.823 234.118 264.85C234.101 264.854 234.085 264.857 234.069 264.857ZM154.655 146.123C154.555 146.123 154.474 146.043 154.474 145.943V125.493C154.474 125.442 154.496 125.393 154.534 125.359C154.572 125.325 154.623 125.307 154.673 125.313C154.957 125.342 183.183 128.171 187.107 121.19C190.405 115.322 176.011 96.254 175.865 96.0622C175.804 95.9825 175.82 95.8693 175.899 95.8087C175.979 95.7492 176.092 95.7638 176.152 95.8433C176.754 96.6348 190.835 115.294 187.421 121.367C183.516 128.317 157.597 125.965 154.835 125.693V145.943C154.835 146.043 154.755 146.123 154.655 146.123Z" fill="black"/>
<path d="M154.654 146.122C154.554 146.122 154.474 146.041 154.474 145.941V125.494C154.474 125.442 154.495 125.394 154.533 125.359C154.571 125.325 154.623 125.307 154.673 125.314C154.725 125.319 159.926 125.853 166.106 125.911C170.012 125.947 173.462 125.792 176.366 125.456C177.553 125.32 178.652 125.15 179.632 124.949C183.637 124.157 186.151 122.892 187.104 121.188C188.368 118.939 187.134 114.32 183.538 107.829C180.184 101.775 175.906 96.1195 175.864 96.063C175.803 95.9835 175.819 95.87 175.898 95.8097C175.978 95.7502 176.091 95.7646 176.151 95.8445C176.195 95.901 180.487 101.576 183.854 107.654C187.567 114.355 188.766 118.968 187.419 121.365C186.412 123.165 183.816 124.49 179.704 125.304C178.714 125.506 177.604 125.678 176.408 125.815C169.966 126.562 161.284 126.316 154.835 125.693V145.941C154.835 146.041 154.754 146.122 154.654 146.122Z" fill="black"/>
<path d="M166.106 126.273C166.006 126.273 165.926 126.192 165.926 126.092V124.057C163.164 124.329 137.245 126.681 133.34 119.731C129.926 113.658 144.008 94.9988 144.609 94.2073C144.67 94.1278 144.783 94.1129 144.862 94.1727C144.942 94.2333 144.957 94.3465 144.897 94.4262C144.751 94.6179 130.357 113.686 133.654 119.554C137.578 126.536 165.804 123.706 166.088 123.677C166.189 123.665 166.287 123.747 166.287 123.857V126.092C166.287 126.192 166.206 126.273 166.106 126.273Z" fill="black"/>
<path d="M154.636 132.803C154.636 132.803 146.636 126.805 137.629 130.482C134.761 131.653 132.64 134.144 130.473 140.362C130.094 141.449 130.162 143.136 133.343 141.423C133.097 142.623 133.69 143.09 135.111 142.833C134.375 144.285 134.715 144.834 136.21 144.414C135.95 145.13 136.344 145.741 137.022 145.79C138.33 145.885 140.334 144.762 142.252 145.402C144.169 146.043 154.654 145.456 154.654 145.456L154.636 132.803Z" fill="white"/>
<path d="M137.009 145.971C136.327 145.921 135.864 145.373 135.962 144.662C135.335 144.797 134.923 144.734 134.707 144.472C134.479 144.194 134.51 143.731 134.803 143.061C133.726 143.178 133.036 142.8 133.114 141.746C131.838 142.384 130.951 142.504 130.479 142.101C129.904 141.611 130.198 140.6 130.302 140.302C132.356 134.408 134.391 131.608 137.56 130.314C146.555 126.642 154.663 132.598 154.744 132.658C154.789 132.692 154.816 132.746 154.816 132.803L154.835 145.456C154.835 145.552 154.76 145.631 154.664 145.637C154.235 145.661 144.123 146.218 142.194 145.574C141.05 145.191 139.853 145.469 138.798 145.714C138.224 145.847 137.555 146.009 137.009 145.971ZM136.38 144.476C136.159 145.081 136.48 145.57 137.035 145.61C137.503 145.644 138.091 145.507 138.716 145.361C139.817 145.106 141.064 144.816 142.309 145.231C144.039 145.809 153.109 145.357 154.473 145.285L154.455 132.896C153.638 132.32 146.055 127.238 137.696 130.649C134.636 131.899 132.659 134.638 130.643 140.421C130.469 140.922 130.396 141.555 130.714 141.826C130.931 142.011 131.55 142.183 133.256 141.264C133.392 141.192 133.55 141.31 133.519 141.46C133.42 141.943 133.468 142.287 133.66 142.484C133.896 142.725 134.374 142.783 135.079 142.656C135.226 142.629 135.339 142.783 135.272 142.915C134.815 143.816 134.898 144.133 134.987 144.242C135.068 144.342 135.329 144.473 136.161 144.24C136.303 144.2 136.43 144.338 136.38 144.476Z" fill="black"/>
<path d="M133.302 141.6C133.205 141.578 133.144 141.481 133.166 141.384C133.182 141.31 134.886 134.05 140.052 133.701C140.152 133.695 140.237 133.769 140.244 133.869C140.251 133.969 140.176 134.055 140.076 134.061C135.176 134.393 133.534 141.393 133.519 141.463C133.496 141.562 133.397 141.622 133.302 141.6ZM135.051 143.004C134.957 142.971 134.907 142.868 134.94 142.774C134.958 142.723 136.761 137.682 141.087 137.129C141.186 137.116 141.277 137.187 141.29 137.285C141.302 137.385 141.232 137.475 141.133 137.488C137.026 138.013 135.298 142.844 135.281 142.893C135.249 142.986 135.147 143.037 135.051 143.004ZM136.095 144.553C136.017 144.49 136.007 144.376 136.07 144.299C136.187 144.157 138.963 140.839 142.114 140.839C142.125 140.839 142.137 140.839 142.149 140.839C142.249 140.84 142.329 140.922 142.328 141.022C142.327 141.121 142.247 141.2 142.146 141.201C142.136 141.201 142.125 141.201 142.114 141.201C139.131 141.201 136.377 144.495 136.349 144.529C136.287 144.604 136.173 144.618 136.095 144.553Z" fill="black"/>
<path d="M95.2526 98.3027L117.397 142.345C118.193 143.929 117.042 145.796 115.269 145.796H46.1495C45.2494 145.796 44.4263 145.288 44.022 144.484L21.878 100.442C21.0817 98.8585 22.233 96.9911 24.0055 96.9911H93.1251C94.0252 96.9911 94.8483 97.4986 95.2526 98.3027Z" fill="white"/>
<path d="M115.269 145.977H46.1495C45.1753 145.977 44.298 145.436 43.8602 144.566L21.7163 100.523C20.8593 98.8194 22.0995 96.8101 24.0052 96.8101H93.1251C94.0997 96.8101 94.9765 97.3509 95.4139 98.2214L117.558 142.264C117.96 143.064 117.92 143.997 117.45 144.759C116.98 145.522 116.165 145.977 115.269 145.977ZM24.0052 97.1718C22.3666 97.1718 21.3042 98.8989 22.0392 100.361L44.183 144.403C44.5594 145.151 45.3126 145.615 46.1495 145.615H115.269C116.038 145.615 116.738 145.224 117.142 144.569C117.546 143.915 117.58 143.113 117.235 142.426L95.091 98.3839C94.7152 97.6362 93.962 97.1718 93.1251 97.1718H24.0052Z" fill="black"/>
<path d="M158.332 145.796H115.27C117.041 145.796 118.19 143.93 117.396 142.343L117.385 142.319L95.255 98.3026C94.8462 97.497 94.0229 96.9936 93.1226 96.9936H96.4041C97.3044 96.9936 98.1219 97.497 98.5306 98.3026L120.66 142.319H154.856C156.776 142.319 158.332 143.876 158.332 145.796Z" fill="#FFAE44"/>
<path d="M158.333 145.977H115.27C115.17 145.977 115.089 145.896 115.089 145.796C115.089 145.696 115.17 145.615 115.27 145.615C116.037 145.615 116.736 145.225 117.139 144.573C117.545 143.917 117.58 143.114 117.235 142.424L95.0935 98.3839C94.7151 97.638 93.9599 97.1744 93.123 97.1744C93.0231 97.1744 92.9424 97.0934 92.9424 96.9935C92.9424 96.8937 93.0231 96.8127 93.123 96.8127H96.4042C97.3748 96.8127 98.2511 97.3522 98.692 98.221L120.772 142.138H154.856C156.873 142.138 158.513 143.779 158.513 145.796C158.513 145.896 158.433 145.977 158.333 145.977ZM116.586 145.615H158.147C158.053 143.881 156.612 142.5 154.856 142.5H120.66C120.592 142.5 120.53 142.461 120.499 142.4L98.3691 98.3839C97.9908 97.638 97.2376 97.1744 96.4042 97.1744H94.4417C94.8508 97.4183 95.1909 97.7765 95.4164 98.221L117.546 142.238C117.96 143.065 117.918 144 117.447 144.763C117.227 145.119 116.931 145.408 116.586 145.615Z" fill="black"/>
<path d="M69.373 121.74C69.9597 123.714 68.8345 125.315 66.8611 125.315C64.8877 125.315 62.8143 123.714 62.2276 121.74C61.6409 119.767 62.7622 118.166 64.7356 118.166C66.709 118.166 68.7863 119.767 69.373 121.74Z" fill="#CAD5FF"/>
<path d="M134.645 245.843C134.643 245.843 134.641 245.843 134.638 245.842C134.539 245.839 134.461 245.755 134.464 245.655C134.534 243.678 133.162 243.517 133.104 243.511C133.004 243.501 132.932 243.413 132.941 243.314C132.951 243.215 133.038 243.141 133.137 243.151C133.155 243.153 134.908 243.341 134.825 245.668C134.822 245.766 134.742 245.843 134.645 245.843ZM132.727 246.764C132.725 246.764 132.723 246.764 132.721 246.763C132.621 246.76 132.543 246.676 132.547 246.576C132.616 244.6 131.244 244.438 131.186 244.432C131.087 244.422 131.014 244.334 131.024 244.235C131.033 244.135 131.116 244.062 131.22 244.072C131.238 244.074 132.99 244.262 132.908 246.589C132.904 246.687 132.824 246.764 132.727 246.764ZM130.81 247.658C130.808 247.658 130.806 247.658 130.803 247.658C130.704 247.654 130.626 247.571 130.629 247.471C130.699 245.494 129.327 245.332 129.269 245.326C129.169 245.316 129.097 245.228 129.106 245.129C129.116 245.03 129.203 244.956 129.302 244.966C129.32 244.968 131.073 245.156 130.99 247.483C130.987 247.581 130.907 247.658 130.81 247.658ZM70.7388 245.585C70.7368 245.585 70.7348 245.585 70.7322 245.585C70.6329 245.581 70.5547 245.497 70.5582 245.398C70.6278 243.421 69.2556 243.259 69.1976 243.254C69.0982 243.244 69.0256 243.155 69.0352 243.056C69.0447 242.957 69.129 242.883 69.2314 242.893C69.2491 242.895 71.0016 243.083 70.9194 245.41C70.9159 245.508 70.8357 245.585 70.7388 245.585ZM68.8213 246.506C68.8192 246.506 68.8172 246.506 68.8147 246.506C68.7153 246.502 68.6371 246.419 68.6407 246.319C68.7103 244.342 67.3381 244.18 67.2801 244.174C67.1807 244.164 67.108 244.076 67.1176 243.977C67.1272 243.878 67.216 243.804 67.3139 243.814C67.3315 243.816 69.0841 244.004 69.0019 246.331C68.9983 246.429 68.9181 246.506 68.8213 246.506ZM66.9037 247.4C66.9017 247.4 66.8997 247.4 66.8972 247.4C66.7978 247.397 66.7196 247.313 66.7231 247.213C66.7927 245.237 65.4205 245.075 65.3625 245.069C65.2631 245.059 65.1905 244.971 65.2001 244.872C65.2097 244.773 65.2944 244.698 65.3963 244.709C65.414 244.711 67.1665 244.899 67.0843 247.226C67.0808 247.324 67.0006 247.4 66.9037 247.4Z" fill="white"/>
<path d="M161.169 145.401C161.164 145.401 161.159 145.401 161.154 145.401C161.055 145.392 160.98 145.305 160.988 145.206L162.512 126.082C162.52 125.983 162.605 125.911 162.706 125.916C162.806 125.924 162.88 126.011 162.872 126.111L161.349 145.235C161.341 145.329 161.262 145.401 161.169 145.401ZM158.682 130.567C157.975 130.567 157.4 129.994 157.4 129.29C157.4 128.583 157.975 128.008 158.682 128.008C159.386 128.008 159.958 128.583 159.958 129.29C159.958 129.994 159.386 130.567 158.682 130.567ZM158.682 128.369C158.174 128.369 157.761 128.783 157.761 129.29C157.761 129.795 158.174 130.205 158.682 130.205C159.186 130.205 159.597 129.795 159.597 129.29C159.597 128.783 159.186 128.369 158.682 128.369ZM126.962 234.717C126.91 234.631 126.938 234.52 127.023 234.468L153.066 218.783C153.151 218.731 153.262 218.759 153.314 218.844C153.365 218.93 153.337 219.041 153.252 219.092L127.21 234.778C127.124 234.83 127.013 234.802 126.962 234.717ZM99.9676 233.778L76.8017 211.862C76.729 211.793 76.726 211.679 76.7946 211.606C76.8622 211.534 76.9772 211.53 77.0499 211.599L100.216 233.515C100.288 233.584 100.291 233.698 100.223 233.771C100.155 233.844 100.04 233.846 99.9676 233.778Z" fill="black"/>
<path d="M137.954 228.092C109.624 179.278 123.575 168.24 158.847 169.599C161.541 169.703 164.087 169.8 166.098 169.736C177.858 169.356 176.699 158.965 171.091 149.679C171.039 149.593 171.067 149.482 171.152 149.43C171.238 149.379 171.349 149.406 171.4 149.492C177.219 159.163 178.193 169.707 166.11 170.097C164.084 170.164 161.534 170.065 158.833 169.961C123.802 168.613 110.102 179.381 138.267 227.911C138.317 227.997 138.288 228.108 138.202 228.158C138.115 228.208 138.005 228.179 137.954 228.092Z" fill="black"/>
<path d="M167.923 57.9983C175.278 48.0095 160.589 43.8836 160.589 43.8836C160.589 43.8836 154.629 42.4962 151.161 47.6674C149.455 50.2105 149.136 53.433 150.045 56.3572C152.217 63.3451 162.44 65.4442 167.923 57.9983Z" fill="white"/>
<path d="M158.69 62.8253C154.944 62.6266 151.238 60.8015 149.873 56.4109C148.908 53.3065 149.323 50.0828 151.011 47.5667C154.509 42.3525 160.569 43.6931 160.63 43.7075C160.945 43.7957 168.174 45.8763 169.834 50.706C170.612 52.9687 170.018 55.4582 168.069 58.1055C165.804 61.181 162.531 63.0306 158.69 62.8253ZM158.709 62.4642C162.247 62.6524 165.468 61.0277 167.778 57.8911C169.653 55.3451 170.229 52.9673 169.492 50.8236C167.893 46.1715 160.613 44.0783 160.54 44.0576C160.49 44.0461 154.667 42.7644 151.312 47.7682C149.685 50.193 149.286 53.3041 150.218 56.3036C151.502 60.4319 154.941 62.2643 158.709 62.4642Z" fill="black"/>
<path d="M151.243 47.2599C151.243 47.2599 147.792 35.6637 161.629 35.1563C175.467 34.6489 177.558 52.6567 168.787 54.9763C160.015 57.2958 159.554 43.7144 159.554 43.7144C156.637 43.3758 153.451 45.2322 151.243 47.2599Z" fill="black"/>
<path d="M165.804 56.3951C165.804 58.0556 167.154 59.4061 168.815 59.4061C170.475 59.4061 171.815 58.0556 171.815 56.3951C171.815 54.7457 170.475 53.3952 168.815 53.3952C167.154 53.3952 165.804 54.7457 165.804 56.3951Z" fill="white"/>
<path d="M168.815 59.5869C167.055 59.5869 165.623 58.1551 165.623 56.395C165.623 54.6412 167.055 53.2143 168.815 53.2143C170.569 53.2143 171.995 54.6412 171.995 56.395C171.995 58.1551 170.569 59.5869 168.815 59.5869ZM168.815 53.576C167.254 53.576 165.984 54.8406 165.984 56.395C165.984 57.9557 167.254 59.2252 168.815 59.2252C170.369 59.2252 171.634 57.9557 171.634 56.395C171.634 54.8406 170.369 53.576 168.815 53.576Z" fill="black"/>
<path d="M157.016 52.8561C157.418 52.8561 157.743 52.5309 157.743 52.1298C157.743 51.7286 157.418 51.4034 157.016 51.4034C156.615 51.4034 156.29 51.7286 156.29 52.1298C156.29 52.5309 156.615 52.8561 157.016 52.8561Z" fill="black"/>
<path d="M155.723 50.2849C155.723 50.2849 156.913 49.1419 158.31 50.4233L155.723 50.2849Z" fill="white"/>
<path d="M158.188 50.5566C156.928 49.4024 155.891 50.3735 155.847 50.4154C155.776 50.4845 155.661 50.4822 155.592 50.4102C155.523 50.3382 155.525 50.2238 155.597 50.1546C155.61 50.1421 156.927 48.9091 158.432 50.29C158.506 50.3575 158.511 50.4719 158.444 50.5455C158.378 50.6173 158.264 50.6258 158.188 50.5566Z" fill="black"/>
<path d="M151.622 52.6955C152.023 52.6955 152.348 52.3703 152.348 51.9691C152.348 51.568 152.023 51.2428 151.622 51.2428C151.221 51.2428 150.896 51.568 150.896 51.9691C150.896 52.3703 151.221 52.6955 151.622 52.6955Z" fill="black"/>
<path d="M150.328 50.124C150.328 50.124 151.518 48.981 152.916 50.2624L150.328 50.124Z" fill="white"/>
<path d="M152.794 50.3957C151.543 49.2493 150.497 50.2133 150.452 50.2548C150.381 50.3229 150.266 50.3212 150.197 50.2486C150.128 50.1765 150.13 50.0626 150.203 49.9936C150.215 49.9811 151.533 48.7497 153.038 50.1291C153.111 50.1966 153.116 50.3109 153.049 50.3846C152.981 50.4584 152.867 50.4631 152.794 50.3957Z" fill="black"/>
<path d="M154.336 58.6578C154.336 58.6578 156.128 60.377 157.016 57.9791L154.336 58.6578Z" fill="white"/>
<path d="M154.211 58.7883C154.139 58.7193 154.137 58.6051 154.205 58.533C154.275 58.4609 154.388 58.4586 154.461 58.5272C155.273 59.386 156.322 59.334 156.847 57.9164C156.881 57.8231 156.983 57.7747 157.079 57.8097C157.173 57.8444 157.221 57.9485 157.186 58.042C156.58 59.6768 155.283 59.8205 154.211 58.7883ZM194.471 27.2505L196.11 23.021H195.361C189.715 23.021 185.123 18.4279 185.123 12.7823C185.123 7.13304 189.715 2.53706 195.361 2.53706H235.71C241.336 2.53706 245.955 7.08955 245.955 12.7823C245.955 18.4279 241.359 23.021 235.71 23.021H203.3L194.723 27.4762C194.576 27.5532 194.411 27.4057 194.471 27.2505ZM195.361 2.89878C189.915 2.89878 185.484 7.33244 185.484 12.7823C185.484 18.2285 189.915 22.6593 195.361 22.6593H196.374C196.501 22.6593 196.588 22.7874 196.542 22.9055L194.981 26.9347L203.172 22.6797C203.198 22.6664 203.226 22.6593 203.255 22.6593H235.71C241.16 22.6593 245.594 18.2285 245.594 12.7823C245.594 7.34378 241.191 2.89878 235.71 2.89878H195.361Z" fill="black"/>
<path d="M224.825 16.5492C223.44 16.5492 222.313 15.4224 222.313 14.0373C222.313 12.6521 223.44 11.5252 224.825 11.5252C226.21 11.5252 227.337 12.6521 227.337 14.0373C227.337 15.4224 226.21 16.5492 224.825 16.5492ZM224.825 11.8869C223.639 11.8869 222.674 12.8515 222.674 14.0373C222.674 15.223 223.639 16.1875 224.825 16.1875C226.011 16.1875 226.976 15.223 226.976 14.0373C226.976 12.8515 226.011 11.8869 224.825 11.8869ZM201.16 16.5492C199.775 16.5492 198.648 15.4224 198.648 14.0373C198.648 12.6521 199.775 11.5252 201.16 11.5252C202.545 11.5252 203.672 12.6521 203.672 14.0373C203.672 15.4224 202.545 16.5492 201.16 16.5492ZM201.16 11.8869C199.975 11.8869 199.01 12.8515 199.01 14.0373C199.01 15.223 199.975 16.1875 201.16 16.1875C202.346 16.1875 203.311 15.223 203.311 14.0373C203.311 12.8515 202.346 11.8869 201.16 11.8869ZM213.201 11.2892C211.815 11.2892 210.689 10.1624 210.689 8.77717C210.689 7.3921 211.815 6.26521 213.201 6.26521C214.586 6.26521 215.712 7.3921 215.712 8.77717C215.712 10.1624 214.586 11.2892 213.201 11.2892ZM213.201 6.62693C212.015 6.62693 211.05 7.5915 211.05 8.77717C211.05 9.96296 212.015 10.9275 213.201 10.9275C214.386 10.9275 215.351 9.96296 215.351 8.77717C215.351 7.5915 214.386 6.62693 213.201 6.62693ZM153.195 54.2076C153.936 53.45 154.371 52.4512 154.42 51.3952C154.425 51.2958 154.489 51.2177 154.609 51.2231C154.709 51.2277 154.786 51.3124 154.781 51.4121C154.728 52.5567 154.256 53.6393 153.454 54.4605C153.014 54.9111 153.134 55.0588 153.631 55.0065L154.145 54.9515C154.25 54.9418 154.333 55.0131 154.344 55.1121C154.355 55.2114 154.283 55.3006 154.184 55.3112L153.67 55.3659C152.844 55.456 152.502 54.9159 153.195 54.2076ZM172.775 52.3007C172.773 52.3007 172.771 52.3005 172.768 52.3004C172.668 52.2965 172.591 52.2125 172.595 52.1127C172.682 49.8936 173.97 47.723 175.876 46.5828C179.424 44.4611 183.787 45.8833 187.587 44.9163C189.726 44.3717 191.332 43.0706 191.885 41.4361C191.917 41.3414 192.02 41.2905 192.114 41.3227C192.209 41.3547 192.26 41.4573 192.228 41.5519C191.636 43.3031 189.934 44.6916 187.676 45.2666C183.823 46.2477 179.496 44.839 176.062 46.8931C174.258 47.9723 173.039 50.0267 172.956 52.1269C172.952 52.2242 172.872 52.3007 172.775 52.3007Z" fill="black"/>
<path d="M189.151 57.5818C187.883 57.5818 186.558 56.8838 185.517 55.6662C183.752 53.6046 183.087 50.612 180.862 49.0771C178.889 47.7172 175.971 48.0501 174.357 49.8197C174.289 49.8936 174.176 49.8988 174.101 49.8314C174.028 49.7641 174.023 49.6498 174.09 49.5761C175.822 47.6777 178.952 47.3208 181.067 48.7795C183.389 50.3805 184.055 53.4016 185.791 55.4311C186.764 56.5682 187.989 57.2201 189.151 57.2201C189.151 57.2201 189.153 57.2201 189.155 57.2201C189.254 57.2201 189.335 57.301 189.335 57.4007C189.336 57.5006 189.254 57.5817 189.155 57.5818C189.155 57.5818 189.152 57.5818 189.151 57.5818Z" fill="black"/>
<path d="M33.8755 29.7942C33.8755 30.888 34.7798 31.7781 35.891 31.7781C37.0076 31.7781 37.9064 30.888 37.9064 29.7942C37.9064 28.6951 37.0076 27.8104 35.891 27.8104C34.7798 27.8104 33.8755 28.6951 33.8755 29.7942Z" fill="white"/>
<path d="M37.2061 49.1764C31.6068 49.1764 26.3904 46.9507 22.518 42.9094C18.8625 39.1001 16.8491 34.0937 16.8491 28.8125C16.8491 17.5857 25.9813 8.45203 37.2061 8.45203C48.4329 8.45203 57.5665 17.5857 57.5665 28.8125C57.5665 34.0484 55.5824 39.0243 51.9799 42.8235C48.0954 46.9202 42.8487 49.1764 37.2061 49.1764ZM37.2061 8.81374C26.1806 8.81374 17.2103 17.7851 17.2103 28.8125C17.2103 33.9999 19.1884 38.9173 22.7793 42.6591C26.5826 46.6286 31.7062 48.8147 37.2061 48.8147C42.7483 48.8147 47.9021 46.5987 51.7176 42.5748C55.256 38.8429 57.2053 33.9555 57.2053 28.8125C57.2053 17.7851 48.2336 8.81374 37.2061 8.81374Z" fill="black"/>
<path d="M25.9926 23.1503L28.9008 24.1057C30.1747 22.8644 43.2998 21.4068 50.59 21.5811C50.9433 21.5904 51.2316 21.2906 51.2665 20.9372L51.3595 20.0166C51.4036 19.5866 51.0596 19.2146 50.6272 19.2286C47.2866 19.3332 34.4265 19.9074 26.0228 22.6319C25.7834 22.7133 25.7624 23.0457 25.9926 23.1503Z" fill="#FF7E2A"/>
<path d="M26.023 22.6366C34.4267 19.9097 47.2868 19.3379 50.6273 19.2332C50.9365 19.2239 51.1969 19.4122 51.3062 19.6749C51.2178 19.6377 51.1202 19.6191 51.0156 19.6215C47.675 19.7261 34.8149 20.3003 26.4112 23.0248C26.3089 23.0573 26.2485 23.1387 26.2275 23.227L25.9904 23.148C25.7626 23.0457 25.7835 22.7133 26.023 22.6366Z" fill="#FF7E2A"/>
<path d="M28.901 24.3383C28.9615 24.3383 29.0196 24.315 29.0638 24.2732C30.2354 23.1341 43.3071 21.6417 50.5856 21.816C51.0436 21.8323 51.4504 21.4534 51.4992 20.9652L51.5922 20.0446C51.6201 19.7726 51.5294 19.5006 51.3411 19.3007C51.1552 19.1008 50.8925 18.9892 50.6205 19.0008C46.9475 19.1171 34.3082 19.7052 25.9534 22.4158C25.7511 22.4809 25.614 22.6599 25.6 22.8714C25.5884 23.083 25.7046 23.2759 25.8976 23.3619C25.9045 23.3666 25.9138 23.3689 25.9208 23.3712L28.829 24.3267C28.8522 24.336 28.8778 24.3383 28.901 24.3383ZM49.3605 21.3371C42.2168 21.3371 30.6283 22.6087 28.8546 23.8478L26.0812 22.9365C26.0719 22.9319 26.0626 22.9202 26.0626 22.8993C26.0649 22.8691 26.0859 22.8621 26.0952 22.8598C34.3943 20.1655 46.9754 19.5797 50.6344 19.4658C50.7739 19.4634 50.9064 19.5146 51.0017 19.6192C51.0971 19.7215 51.1435 19.861 51.1296 20.0004L51.0366 20.921C51.011 21.1651 50.8111 21.3534 50.5972 21.3557C50.2021 21.3418 49.7883 21.3371 49.3605 21.3371Z" fill="#1C256C"/>
<path d="M24.0909 38.7675C22.8815 38.7675 21.9011 37.7871 21.9011 36.5777C21.9011 35.3683 22.8815 34.3878 24.0909 34.3878C25.3003 34.3878 26.2808 35.3683 26.2808 36.5777C26.2808 37.7871 25.3003 38.7675 24.0909 38.7675Z" fill="white"/>
<path d="M24.0913 37.3658C23.6561 37.3658 23.3033 37.0129 23.3033 36.5777C23.3033 36.1425 23.6561 35.7896 24.0913 35.7896C24.5266 35.7896 24.8794 36.1425 24.8794 36.5777C24.8794 37.0129 24.5266 37.3658 24.0913 37.3658Z" fill="white"/>
<path d="M24.0913 37.5982C24.6539 37.5982 25.1118 37.1403 25.1118 36.5777C25.1118 36.0151 24.6539 35.5572 24.0913 35.5572C23.5287 35.5572 23.0708 36.0151 23.0708 36.5777C23.0708 37.1403 23.5287 37.5982 24.0913 37.5982ZM24.0913 36.0221C24.3981 36.0221 24.6469 36.2708 24.6469 36.5777C24.6469 36.8845 24.3981 37.1333 24.0913 37.1333C23.7844 37.1333 23.5357 36.8845 23.5357 36.5777C23.5357 36.2708 23.7844 36.0221 24.0913 36.0221Z" fill="#1C256C"/>
<path d="M22.7845 34.8226C22.5125 35.1875 22.3474 35.6385 22.3474 36.129C22.3474 37.3379 23.3284 38.3189 24.5373 38.3189C25.0278 38.3189 25.4788 38.1562 25.8438 37.8818C25.4439 38.4165 24.8093 38.7652 24.0909 38.7652C22.8821 38.7652 21.9011 37.7842 21.9011 36.5754C21.9011 35.8594 22.2498 35.2224 22.7845 34.8226Z" fill="white"/>
<path d="M24.0909 39C25.4276 39 26.5132 37.9144 26.5132 36.5777C26.5132 35.241 25.4276 34.1554 24.0909 34.1554C22.7542 34.1554 21.6686 35.241 21.6686 36.5777C21.6686 37.9144 22.7542 39 24.0909 39ZM24.0909 34.6203C25.1695 34.6203 26.0482 35.499 26.0482 36.5777C26.0482 37.6563 25.1695 38.5351 24.0909 38.5351C23.0122 38.5351 22.1335 37.6563 22.1335 36.5777C22.1335 35.499 23.0122 34.6203 24.0909 34.6203Z" fill="#1C256C"/>
<path d="M25.358 35.7594C25.3929 35.7268 25.4022 35.671 25.3743 35.6292C25.079 35.1387 24.7908 35.0992 24.7582 35.0968C24.7001 35.0922 24.649 35.134 24.6443 35.1922C24.6397 35.2503 24.6815 35.2991 24.7373 35.3061C24.7466 35.3084 24.9581 35.3479 25.1929 35.7361C25.2232 35.785 25.2882 35.8012 25.3371 35.7733C25.3464 35.7687 25.351 35.764 25.358 35.7594Z" fill="white"/>
<path d="M49.028 34.7831H50.9598C51.3457 34.7831 51.6572 34.4715 51.6572 34.0856C51.6572 33.6998 51.3457 33.3882 50.9598 33.3882H49.028V34.7831Z" fill="#575D72"/>
<path d="M49.028 35.0155H50.9598C51.4735 35.0155 51.8896 34.5994 51.8896 34.0856C51.8896 33.5719 51.4735 33.1558 50.9598 33.1558H49.028C48.9001 33.1558 48.7955 33.2604 48.7955 33.3882V34.783C48.7955 34.9109 48.9001 35.0155 49.028 35.0155ZM50.9598 33.6207C51.2155 33.6207 51.4247 33.8299 51.4247 34.0856C51.4247 34.3413 51.2155 34.5506 50.9598 34.5506H49.2604V33.6207H50.9598Z" fill="#1C256C"/>
<path d="M49.3326 25.7726H48.684C48.4632 25.7726 48.2726 25.9307 48.2331 26.1492L47.6542 29.4084H49.2327L49.7836 26.3073C49.8324 26.0307 49.6162 25.7726 49.3326 25.7726Z" fill="#FF7E2A"/>
<path d="M47.6519 29.6432H49.2304C49.342 29.6432 49.4396 29.5618 49.4582 29.4502L50.0091 26.3491C50.044 26.1469 49.9905 25.9423 49.858 25.7842C49.7255 25.6285 49.5326 25.5378 49.328 25.5378H48.6794C48.3447 25.5378 48.0587 25.7772 48.0006 26.1073L47.4218 29.3665C47.4101 29.434 47.4287 29.5037 47.4729 29.5572C47.5194 29.613 47.5845 29.6432 47.6519 29.6432ZM49.0374 29.1782H47.9309L48.4609 26.191C48.4795 26.0841 48.5725 26.0051 48.6817 26.0051H49.3327C49.4233 26.0051 49.4791 26.0562 49.5047 26.0864C49.5303 26.1166 49.5698 26.1794 49.5535 26.2701L49.0374 29.1782Z" fill="#1C256C"/>
<path d="M24.1516 36.7288C24.3282 36.7637 24.5003 36.6498 24.5351 36.4731L25.1279 33.5254L24.4886 33.3976L23.8959 36.3452C23.861 36.5219 23.9749 36.6939 24.1516 36.7288Z" fill="white"/>
<path d="M24.2166 36.9683C24.4769 36.9683 24.7094 36.7846 24.7629 36.5196L25.3557 33.5719C25.3812 33.4464 25.2999 33.3232 25.1743 33.2976L24.535 33.1698C24.4746 33.1581 24.4118 33.1698 24.3607 33.2046C24.3095 33.2395 24.2747 33.293 24.2607 33.3534L23.6679 36.3011C23.6075 36.6033 23.8028 36.8985 24.105 36.959C24.1422 36.966 24.1794 36.9683 24.2166 36.9683ZM24.8535 33.7091L24.3072 36.429C24.3002 36.4615 24.2793 36.4801 24.2677 36.4894C24.2561 36.4964 24.2305 36.5103 24.198 36.5033C24.1468 36.4941 24.1143 36.4429 24.1259 36.3941L24.6722 33.6742L24.8535 33.7091Z" fill="#1C256C"/>
<path d="M22.4871 34.0298L25.7603 33.5882L25.2116 31.4123L24.14 31.7447C23.5751 31.9214 23.1217 32.3468 22.9102 32.9024L22.4871 34.0298Z" fill="#FF7E2A"/>
<path d="M22.4872 34.2623C22.4965 34.2623 22.5082 34.2623 22.5175 34.26L25.7906 33.8183C25.8557 33.809 25.9138 33.7741 25.951 33.7183C25.9882 33.6626 25.9998 33.5951 25.9835 33.5324L25.4349 31.3565C25.4186 31.2937 25.3791 31.2426 25.3233 31.21C25.2675 31.1775 25.2025 31.1728 25.1397 31.1914L24.068 31.5238C23.4287 31.7214 22.9266 32.1957 22.6918 32.821L22.2664 33.9485C22.2385 34.0252 22.2501 34.1112 22.3013 34.1763C22.3501 34.2298 22.4152 34.2623 22.4872 34.2623ZM25.4721 33.3906L22.8429 33.7462L23.1312 32.9837C23.3171 32.4932 23.71 32.1213 24.2121 31.9655L25.049 31.7052L25.4721 33.3906Z" fill="#1C256C"/>
<path d="M29.1728 35.4619L28.859 34.0299H33.2526V32.47H37.4673V35.4619H29.1728Z" fill="#FF7E2A"/>
<path d="M29.1728 35.6943H37.4672C37.5951 35.6943 37.6997 35.5897 37.6997 35.4619V32.47C37.6997 32.3422 37.5951 32.2375 37.4672 32.2375H33.2503C33.1224 32.2375 33.0178 32.3422 33.0178 32.47V33.7974H28.8566C28.7869 33.7974 28.7195 33.83 28.6753 33.8834C28.6311 33.9392 28.6149 34.009 28.6288 34.0787L28.9427 35.513C28.9682 35.62 29.0635 35.6943 29.1728 35.6943ZM37.2348 35.2294H29.3588L29.1472 34.26H33.2526C33.3805 34.26 33.4851 34.1554 33.4851 34.0275V32.7002H37.2348V35.2294Z" fill="#1C256C"/>
<path d="M33.5689 32.47V31.3146H36.154V27.5045C36.154 26.7931 36.7305 26.2143 37.4442 26.2143H37.4697V32.47H33.5689Z" fill="#FF7E2A"/>
<path d="M33.5688 32.7025H37.4672C37.5951 32.7025 37.6997 32.5979 37.6997 32.47V26.2143C37.6997 26.0864 37.5951 25.9818 37.4672 25.9818H37.4417C36.6025 25.9818 35.919 26.6653 35.919 27.5045V31.0822H33.5688C33.4409 31.0822 33.3363 31.1868 33.3363 31.3146V32.47C33.3363 32.5979 33.4409 32.7025 33.5688 32.7025ZM37.2348 32.2375H33.8012V31.5471H36.1538C36.2817 31.5471 36.3863 31.4425 36.3863 31.3146V27.5045C36.3863 26.9931 36.7512 26.5653 37.2371 26.4677V32.2375H37.2348Z" fill="#1C256C"/>
<path d="M33.253 32.47C33.253 32.47 29.7195 31.1147 28.427 31.468L28.8617 34.0275H33.2554V32.47H33.253Z" fill="#FF7E2A"/>
<path d="M28.8593 34.2623H33.2529C33.3808 34.2623 33.4854 34.1577 33.4854 34.0298V32.47C33.4854 32.3747 33.4249 32.2863 33.3366 32.2538C33.1901 32.198 29.7171 30.8752 28.3641 31.2449C28.2479 31.2774 28.1758 31.3913 28.1967 31.5076L28.6314 34.067C28.65 34.1809 28.7454 34.2623 28.8593 34.2623ZM33.0204 33.7974H29.0569L28.6942 31.6563C29.7612 31.5355 32.0208 32.2607 33.0204 32.6327V33.7974ZM50.7275 29.6432C50.8554 29.6432 50.96 29.5386 50.96 29.4107V21.5835C50.96 21.4557 50.8554 21.351 50.7275 21.351C50.5996 21.351 50.495 21.4557 50.495 21.5835V29.4107C50.495 29.5386 50.5996 29.6432 50.7275 29.6432ZM37.4675 29.6432C37.5954 29.6432 37.7 29.5386 37.7 29.4107V22.5761C37.7 22.4483 37.5954 22.3437 37.4675 22.3437C37.3397 22.3437 37.2351 22.4483 37.2351 22.5761V29.4107C37.2351 29.5386 37.3397 29.6432 37.4675 29.6432Z" fill="#1C256C"/>
<path d="M37.4675 27.7741H50.7275C50.8554 27.7741 50.96 27.6695 50.96 27.5417C50.96 27.4138 50.8554 27.3092 50.7275 27.3092H37.4675C37.3397 27.3092 37.2351 27.4138 37.2351 27.5417C37.2351 27.6695 37.3397 27.7741 37.4675 27.7741ZM37.4675 28.5901H50.7275C50.8554 28.5901 50.96 28.4855 50.96 28.3576C50.96 28.2298 50.8554 28.1251 50.7275 28.1251H37.4675C37.3397 28.1251 37.2351 28.2298 37.2351 28.3576C37.2351 28.4855 37.3397 28.5901 37.4675 28.5901Z" fill="#1C256C"/>
<path d="M28.22 29.6827C28.492 32.742 29.1731 35.4618 29.1731 35.4618H37.4676V29.4107H50.7275V34.783H49.0282C49.0282 34.783 47.0453 32.2561 44.7438 32.47C41.8194 32.742 41.752 36.2778 37.8767 36.2778C34.0015 36.2778 27.8132 36.2778 27.8132 36.2778C27.8132 36.2778 25.1607 34.5785 25.1607 30.4289C25.1607 30.0756 25.1747 29.7385 25.1956 29.4084H28.2014C28.2084 29.5014 28.213 29.5897 28.22 29.6827Z" fill="#FF7E2A"/>
<path d="M27.6084 25.7726C28.2128 24.3313 26.7506 24.3964 26.711 24.3987C27.0737 23.9454 27.4596 23.699 27.8129 23.699C28.9683 23.699 29.5123 23.5642 28.7661 24.5824C28.7661 24.5824 28.0012 26.5049 28.2035 29.4107H25.1977C25.2302 28.9063 25.286 28.4321 25.3581 27.9834C26.6994 28.3902 27.0597 27.0837 27.6084 25.7726Z" fill="#FF7E2A"/>
<path d="M25.1956 29.6432H28.2014C28.2665 29.6432 28.3269 29.6153 28.3711 29.5688C28.4152 29.5223 28.4385 29.4596 28.4338 29.3945C28.2502 26.7606 28.8848 24.9311 28.9708 24.694C29.2684 24.2848 29.4242 23.9803 29.2963 23.7316C29.1498 23.4503 28.7825 23.4549 28.1758 23.4619C28.0642 23.4642 27.941 23.4642 27.8132 23.4642C27.3877 23.4642 26.9437 23.7362 26.5299 24.2523C26.4718 24.3244 26.4625 24.422 26.5044 24.5034C26.5462 24.5847 26.6299 24.6359 26.7229 24.6289C26.8693 24.6219 27.2831 24.6521 27.4459 24.88C27.5923 25.0892 27.4993 25.4309 27.3947 25.6797C27.3389 25.8122 27.2855 25.9423 27.2343 26.0725C26.7206 27.3418 26.3835 28.0462 25.4257 27.7579C25.3606 27.7393 25.2932 27.7486 25.2351 27.7835C25.1793 27.8184 25.1398 27.8765 25.1282 27.9439C25.0491 28.4321 24.9956 28.9063 24.9654 29.3945C24.9608 29.4596 24.984 29.5223 25.0282 29.5688C25.07 29.6177 25.1328 29.6432 25.1956 29.6432ZM27.955 29.1783H25.4443C25.4676 28.8738 25.5024 28.5739 25.5466 28.2693C26.7624 28.4786 27.2204 27.3488 27.6621 26.2515C27.7132 26.1237 27.7667 25.9935 27.8201 25.8633C28.0386 25.3426 28.0386 24.9241 27.8225 24.6173C27.6621 24.3895 27.418 24.2779 27.1971 24.2198C27.411 24.0315 27.6225 23.9315 27.8085 23.9315C27.941 23.9315 28.0642 23.9292 28.1781 23.9292C28.4362 23.9245 28.75 23.9222 28.8662 23.9547C28.85 24.0129 28.7918 24.15 28.5733 24.4452C28.5617 24.4615 28.5524 24.4778 28.5454 24.4964C28.5175 24.5754 27.8108 26.3933 27.955 29.1783Z" fill="#1C256C"/>
<path d="M27.6087 25.7726C27.06 27.0837 26.6997 28.3879 25.356 27.9834C25.6234 26.3422 26.1418 25.1101 26.7113 24.3987C26.7509 24.3964 28.2131 24.3313 27.6087 25.7726Z" fill="white"/>
<path d="M25.8327 28.2949C26.8393 28.2949 27.2577 27.2581 27.6646 26.2515C27.7157 26.1236 27.7692 25.9934 27.8226 25.8632C28.0412 25.3425 28.0412 24.9241 27.825 24.6172C27.4902 24.1407 26.7765 24.1639 26.6975 24.1686C26.6301 24.1709 26.5696 24.2034 26.5278 24.2546C25.8792 25.0636 25.3794 26.3747 25.1237 27.9462C25.1051 28.0601 25.1748 28.1716 25.2864 28.2065C25.4887 28.267 25.6677 28.2949 25.8327 28.2949ZM27.3949 25.6842C27.3391 25.8168 27.2856 25.9469 27.2345 26.0771C26.7579 27.2557 26.4348 27.9462 25.6235 27.809C25.8629 26.4839 26.2953 25.3425 26.8277 24.6312C27.0136 24.6405 27.3159 24.6939 27.4484 24.8822C27.5925 25.0915 27.4995 25.4332 27.3949 25.6842Z" fill="#1C256C"/>
<path d="M37.8768 36.2778C41.7521 36.2778 41.8218 32.742 44.7439 32.47C47.0454 32.2561 49.0283 34.7831 49.0283 34.7831C48.0496 36.1104 43.4747 36.2778 37.8768 36.2778Z" fill="#FF7E2A"/>
<path d="M37.8762 36.5103C44.3155 36.5103 48.2326 36.2499 49.2136 34.9202C49.2764 34.8365 49.2741 34.7203 49.209 34.6389C49.1253 34.532 47.1214 32.0167 44.72 32.2398C43.3066 32.3723 42.5069 33.2325 41.7328 34.0624C40.8262 35.0364 39.8893 36.0453 37.8738 36.0453C37.746 36.0453 37.6414 36.1499 37.6414 36.2778C37.6414 36.4057 37.7483 36.5103 37.8762 36.5103ZM48.7208 34.7807C47.7026 35.764 43.9877 35.9895 40.073 36.036C40.9308 35.6129 41.5236 34.9737 42.0769 34.3809C42.8231 33.5765 43.5275 32.8187 44.7665 32.7048C46.5984 32.5327 48.2628 34.2577 48.7208 34.7807Z" fill="#1C256C"/>
<path d="M25.1606 30.1128C25.1606 30.6869 24.6957 31.1496 24.1238 31.1496V29.0736C24.6957 29.0759 25.1606 29.5386 25.1606 30.1128Z" fill="#FF7E2A"/>
<path d="M24.1238 31.3821C24.8235 31.3821 25.3931 30.8125 25.3931 30.1128C25.3931 29.4131 24.8235 28.8435 24.1238 28.8435C23.9959 28.8435 23.8913 28.9481 23.8913 29.076V31.1519C23.8913 31.2798 23.9959 31.3821 24.1238 31.3821ZM24.3563 29.341C24.6864 29.4409 24.9281 29.7478 24.9281 30.1128C24.9281 30.4754 24.6864 30.7846 24.3563 30.8846V29.341Z" fill="#1C256C"/>
<path d="M45.4784 31.7354C47.7798 31.5215 49.7628 34.0461 49.7628 34.0461H50.7275V34.7807H49.0282C49.0282 34.7807 47.0453 32.2538 44.7438 32.4677C43.8767 32.549 43.263 32.9163 42.7237 33.3929C43.4676 32.5979 44.1998 31.854 45.4784 31.7354ZM25.1956 29.4107H25.9C25.8977 29.506 25.8953 29.599 25.8953 29.6967C25.8953 33.8439 28.5478 35.5456 28.5478 35.5456C28.5478 35.5456 34.7361 35.5456 38.6113 35.5456C40.1177 35.5456 41.0476 35.0109 41.7961 34.3414C40.8965 35.3061 39.9108 36.2802 37.8767 36.2802C34.0015 36.2802 27.8132 36.2802 27.8132 36.2802C27.8132 36.2802 25.1607 34.5808 25.1607 30.4313C25.1607 30.0779 25.1747 29.7408 25.1956 29.4107Z" fill="#FF7E2A"/>
<path d="M27.8127 36.5104H37.8762C40.0963 36.5104 41.147 35.3783 42.0769 34.3786C42.8231 33.5743 43.5275 32.8165 44.7665 32.7026C46.9122 32.5026 48.8277 34.9017 48.8463 34.9273C48.8905 34.9831 48.9579 35.0156 49.03 35.0156H50.727C50.8549 35.0156 50.9595 34.911 50.9595 34.7831V29.4108C50.9595 29.283 50.8549 29.1783 50.727 29.1783H37.467C37.3392 29.1783 37.2346 29.283 37.2346 29.4108V35.2295H29.3539C29.2028 34.5809 28.6774 32.2283 28.4496 29.6619C28.445 29.6014 28.4403 29.5433 28.438 29.4852L28.431 29.3945C28.4217 29.2737 28.3218 29.1783 28.1986 29.1783H25.1928C25.0696 29.1783 24.9673 29.2737 24.9603 29.3969C24.937 29.7874 24.9254 30.1152 24.9254 30.4313C24.9254 34.6576 27.5709 36.4034 27.6848 36.4755C27.7243 36.4988 27.7685 36.5104 27.8127 36.5104ZM45.0246 32.226C44.9246 32.226 44.8223 32.2306 44.72 32.2399C43.3066 32.3725 42.5069 33.2326 41.7328 34.0625C40.8262 35.0365 39.8894 36.0454 37.8739 36.0454H27.8824C27.5174 35.7804 25.3904 34.0695 25.3904 30.429C25.3904 30.1826 25.3973 29.9292 25.4113 29.641H27.98C27.9824 29.6619 27.9824 29.6805 27.9847 29.7014C28.2544 32.7444 28.9355 35.4898 28.9425 35.5177C28.968 35.62 29.061 35.6944 29.168 35.6944H37.467C37.5949 35.6944 37.6995 35.5898 37.6995 35.4619V29.6433H50.4945V34.5507H49.1369C48.7673 34.1067 47.068 32.226 45.0246 32.226Z" fill="#1C256C"/>
<path d="M44.9151 30.7263H49.3715C49.4994 30.7263 49.604 30.6217 49.604 30.4939C49.604 30.366 49.4994 30.2614 49.3715 30.2614H44.9151C44.7873 30.2614 44.6827 30.366 44.6827 30.4939C44.6827 30.6217 44.7873 30.7263 44.9151 30.7263Z" fill="#FF7E2A"/>
<path d="M45.0504 38.7676C43.841 38.7676 42.8605 37.7872 42.8605 36.5778C42.8605 35.3684 43.841 34.3879 45.0504 34.3879C46.2598 34.3879 47.2402 35.3684 47.2402 36.5778C47.2402 37.7872 46.2598 38.7676 45.0504 38.7676Z" fill="white"/>
<path d="M45.0503 37.3659C44.6151 37.3659 44.2622 37.013 44.2622 36.5778C44.2622 36.1426 44.6151 35.7897 45.0503 35.7897C45.4856 35.7897 45.8384 36.1426 45.8384 36.5778C45.8384 37.013 45.4856 37.3659 45.0503 37.3659Z" fill="white"/>
<path d="M45.0508 37.5983C45.6133 37.5983 46.0713 37.1404 46.0713 36.5778C46.0713 36.0152 45.6133 35.5573 45.0508 35.5573C44.4882 35.5573 44.0302 36.0152 44.0302 36.5778C44.0302 37.1404 44.4882 37.5983 45.0508 37.5983ZM45.0508 36.0222C45.3576 36.0222 45.6064 36.2709 45.6064 36.5778C45.6064 36.8846 45.3576 37.1334 45.0508 37.1334C44.7439 37.1334 44.4952 36.8846 44.4952 36.5778C44.4952 36.2709 44.7462 36.0222 45.0508 36.0222Z" fill="#1C256C"/>
<path d="M43.7439 34.8227C43.472 35.1876 43.3069 35.6386 43.3069 36.1291C43.3069 37.338 44.2879 38.319 45.4968 38.319C45.9873 38.319 46.4382 38.1562 46.8032 37.8819C46.4034 38.4166 45.7687 38.7653 45.0504 38.7653C43.8416 38.7653 42.8606 37.7843 42.8606 36.5755C42.8606 35.8595 43.2093 35.2225 43.7439 34.8227Z" fill="white"/>
<path d="M45.0503 39C46.387 39 47.4727 37.9144 47.4727 36.5777C47.4727 35.241 46.387 34.1554 45.0503 34.1554C43.7137 34.1554 42.628 35.241 42.628 36.5777C42.628 37.9144 43.716 39 45.0503 39ZM45.0503 34.6203C46.129 34.6203 47.0077 35.499 47.0077 36.5777C47.0077 37.6563 46.129 38.5351 45.0503 38.5351C43.9717 38.5351 43.093 37.6563 43.093 36.5777C43.093 35.499 43.9717 34.6203 45.0503 34.6203Z" fill="#1C256C"/>
<path d="M46.3175 35.7595C46.3523 35.7269 46.3616 35.6711 46.3337 35.6293C46.0385 35.1388 45.7502 35.0993 45.7177 35.0969C45.6596 35.0923 45.6084 35.1341 45.6038 35.1923C45.5991 35.2504 45.641 35.2992 45.6968 35.3062C45.7061 35.3085 45.9176 35.348 46.1524 35.7362C46.1826 35.785 46.2477 35.8013 46.2965 35.7734C46.3058 35.7688 46.3128 35.7641 46.3175 35.7595Z" fill="white"/>
<path d="M113.422 57.6285H10.7219C8.92441 57.6285 7.46191 56.1659 7.46191 54.3681V3.26035C7.46191 1.46263 8.92441 0 10.7219 0H113.422C115.22 0 116.682 1.46263 116.682 3.26035V54.3681C116.682 56.1659 115.22 57.6285 113.422 57.6285ZM10.7219 0.361715C9.12369 0.361715 7.82312 1.66202 7.82312 3.26035V54.3681C7.82312 55.9665 9.12369 57.2668 10.7219 57.2668H113.422C115.02 57.2668 116.321 55.9665 116.321 54.3681V3.26035C116.321 1.66202 115.02 0.361715 113.422 0.361715H10.7219Z" fill="black"/>
<path d="M100.42 16.886V19.7858C100.42 20.4277 99.8994 20.9481 99.2574 20.9481H72.2497C71.6078 20.9481 71.0874 20.4277 71.0874 19.7858V16.886C71.0874 16.2441 71.6078 15.7237 72.2497 15.7237H99.2574C99.8994 15.7237 100.42 16.2441 100.42 16.886Z" fill="#FFC176"/>
<path d="M110.288 27.4342H96.1794C96.0795 27.4342 95.9988 27.3533 95.9988 27.2534C95.9988 27.1535 96.0795 27.0725 96.1794 27.0725H110.288C110.388 27.0725 110.468 27.1535 110.468 27.2534C110.468 27.3533 110.388 27.4342 110.288 27.4342ZM78.7994 27.4342H71.0873C70.9875 27.4342 70.9067 27.3533 70.9067 27.2534C70.9067 27.1535 70.9875 27.0725 71.0873 27.0725H78.7994C78.8993 27.0725 78.98 27.1535 78.98 27.2534C78.98 27.3533 78.8993 27.4342 78.7994 27.4342ZM110.288 31.9684H71.0873C70.9875 31.9684 70.9067 31.8874 70.9067 31.7875C70.9067 31.6877 70.9875 31.6067 71.0873 31.6067H110.288C110.388 31.6067 110.468 31.6877 110.468 31.7875C110.468 31.8874 110.388 31.9684 110.288 31.9684ZM110.288 36.5026H71.0873C70.9875 36.5026 70.9067 36.4216 70.9067 36.3217C70.9067 36.2218 70.9875 36.1409 71.0873 36.1409H110.288C110.388 36.1409 110.468 36.2218 110.468 36.3217C110.468 36.4216 110.388 36.5026 110.288 36.5026ZM110.288 41.0368H105.428C105.328 41.0368 105.247 40.9558 105.247 40.8559C105.247 40.756 105.328 40.675 105.428 40.675H110.288C110.388 40.675 110.468 40.756 110.468 40.8559C110.468 40.9558 110.388 41.0368 110.288 41.0368ZM99.2048 41.0368H71.0873C70.9875 41.0368 70.9067 40.9558 70.9067 40.8559C70.9067 40.756 70.9875 40.675 71.0873 40.675H99.2048C99.3047 40.675 99.3854 40.756 99.3854 40.8559C99.3854 40.9558 99.3047 41.0368 99.2048 41.0368ZM93.7165 45.5709H71.0873C70.9875 45.5709 70.9067 45.49 70.9067 45.3901C70.9067 45.2902 70.9875 45.2092 71.0873 45.2092H93.7165C93.8164 45.2092 93.8971 45.2902 93.8971 45.3901C93.8971 45.49 93.8164 45.5709 93.7165 45.5709Z" fill="black"/>
<path d="M220.284 24.2446C220.259 24.2446 220.233 24.2393 220.209 24.228C219.663 23.9765 219.113 23.733 218.561 23.4975C218.468 23.4584 218.426 23.3521 218.465 23.2603C218.504 23.1683 218.612 23.1258 218.702 23.1648C219.258 23.4018 219.811 23.6466 220.36 23.8996C220.535 23.9798 220.478 24.2446 220.284 24.2446ZM221.715 108.504C221.619 108.504 221.54 108.429 221.534 108.333C221.528 108.233 221.605 108.148 221.704 108.142C222.917 108.073 224.143 107.932 225.348 107.722C225.447 107.706 225.54 107.772 225.557 107.869C225.574 107.968 225.508 108.062 225.409 108.079C223.527 108.406 222.306 108.453 221.715 108.504ZM228.797 107.117C228.769 107.021 228.824 106.92 228.92 106.892C230.091 106.549 231.253 106.135 232.376 105.662C232.467 105.624 232.574 105.667 232.612 105.759C232.651 105.851 232.608 105.957 232.516 105.996C231.381 106.474 230.205 106.892 229.022 107.239C228.927 107.267 228.825 107.213 228.797 107.117ZM235.6 104.292C235.551 104.206 235.581 104.095 235.669 104.046C236.734 103.444 237.77 102.775 238.749 102.057C238.829 101.998 238.942 102.015 239.002 102.096C239.061 102.176 239.044 102.29 238.963 102.349C237.973 103.075 236.924 103.752 235.846 104.361C235.762 104.409 235.65 104.382 235.6 104.292ZM241.56 99.97C241.492 99.8971 241.496 99.7826 241.569 99.7145C242.454 98.8848 243.305 97.9904 244.095 97.0558C244.16 96.9794 244.274 96.9703 244.35 97.0346C244.426 97.099 244.436 97.2132 244.371 97.2894C243.572 98.2346 242.712 99.1394 241.816 99.9783C241.744 100.046 241.629 100.044 241.56 99.97ZM246.351 94.3753C246.268 94.3198 246.246 94.2075 246.301 94.1245C246.977 93.1123 247.603 92.0486 248.161 90.9629C248.207 90.8741 248.314 90.8391 248.404 90.885C248.493 90.9306 248.528 91.0396 248.483 91.1284C247.918 92.2262 247.285 93.3017 246.602 94.3253C246.547 94.4081 246.434 94.4311 246.351 94.3753ZM249.755 87.8439C249.662 87.8086 249.615 87.7042 249.65 87.6109C250.082 86.466 250.45 85.2882 250.743 84.1104C250.768 84.0139 250.865 83.9537 250.963 83.9786C251.059 84.0027 251.118 84.1008 251.094 84.1977C250.798 85.3891 250.426 86.5805 249.988 87.7385C249.954 87.8303 249.851 87.8794 249.755 87.8439ZM251.57 80.7074C251.472 80.6952 251.401 80.6049 251.413 80.5058C251.562 79.2977 251.638 78.0665 251.639 76.8466C251.639 76.7468 251.719 76.6658 251.819 76.6658C251.919 76.666 252 76.7469 252 76.8468C251.999 78.0814 251.923 79.3274 251.772 80.55C251.76 80.647 251.673 80.7193 251.57 80.7074ZM251.416 73.187C251.268 71.971 251.042 70.7585 250.747 69.5833C250.722 69.4864 250.781 69.3881 250.878 69.3638C250.975 69.339 251.074 69.3982 251.098 69.495C251.397 70.6848 251.625 71.9122 251.775 73.1432C251.787 73.2423 251.717 73.3325 251.617 73.3446C251.52 73.3567 251.428 73.2875 251.416 73.187ZM249.626 66.0945C249.174 64.9516 248.644 63.8391 248.051 62.7879C248.002 62.7008 248.033 62.5906 248.12 62.5415C248.207 62.4925 248.317 62.5229 248.366 62.61C248.967 63.6757 249.505 64.8033 249.962 65.9616C249.999 66.0544 249.954 66.1595 249.861 66.1962C249.771 66.2322 249.663 66.1897 249.626 66.0945ZM246.027 59.7379C245.412 58.945 244.563 57.9613 243.608 56.9761C243.538 56.9044 243.54 56.7899 243.612 56.7204C243.683 56.6507 243.798 56.653 243.867 56.7243C244.709 57.5919 245.576 58.5694 246.312 59.5162C246.373 59.595 246.359 59.7086 246.28 59.7698C246.2 59.8313 246.088 59.8166 246.027 59.7379ZM232.348 59.5154C232.248 59.5126 232.169 59.4295 232.172 59.3296C232.175 59.2299 232.26 59.1493 232.358 59.1539C233.479 59.1848 234.646 59.1195 236.013 58.9554C236.113 58.9433 236.202 59.0143 236.214 59.1133C236.226 59.2125 236.155 59.3025 236.056 59.3144C234.522 59.4988 233.34 59.5426 232.348 59.5154ZM228.661 58.9717C227.473 58.6256 226.469 58.1531 225.315 57.3132C225.234 57.2545 225.216 57.1414 225.275 57.0607C225.334 56.9796 225.446 56.9622 225.527 57.0208C226.661 57.8452 227.629 58.2945 228.762 58.6246C228.858 58.6525 228.913 58.7529 228.885 58.8487C228.856 58.9454 228.755 58.9996 228.661 58.9717ZM239.498 58.5734C239.476 58.4759 239.538 58.3793 239.635 58.3577C240.959 58.0635 242.128 57.6874 243.108 57.2399C243.197 57.1983 243.306 57.2382 243.347 57.3293C243.389 57.4201 243.349 57.5273 243.258 57.5688C242.241 58.0333 241.081 58.4068 239.714 58.7106C239.62 58.7323 239.52 58.6736 239.498 58.5734ZM246.056 55.4274C245.981 55.3613 245.974 55.2471 246.04 55.1722C246.524 54.6237 246.898 54.0087 247.151 53.3443C247.319 52.9016 247.433 52.4361 247.491 51.9609C247.503 51.8619 247.59 51.7909 247.692 51.8031C247.791 51.8151 247.862 51.9051 247.85 52.0043C247.789 52.5085 247.667 53.0026 247.489 53.4728C247.22 54.1781 246.824 54.8304 246.311 55.4115C246.245 55.4866 246.131 55.4934 246.056 55.4274ZM222.645 54.702C221.904 53.6901 221.25 52.3437 221.58 51.1286C221.607 51.0324 221.705 50.9755 221.802 51.0015C221.899 51.0277 221.956 51.127 221.93 51.2234C221.632 52.3222 222.265 53.5708 222.936 54.4883C222.995 54.5689 222.978 54.6821 222.898 54.7411C222.817 54.8001 222.704 54.7825 222.645 54.702ZM240.932 54.4578C239.98 53.6416 239.005 52.8822 238.031 52.2006C237.949 52.1434 237.93 52.0306 237.987 51.9489C238.044 51.8669 238.156 51.8469 238.239 51.9045C239.222 52.5927 240.207 53.3594 241.167 54.1834C241.243 54.2485 241.252 54.3626 241.187 54.4384C241.121 54.515 241.006 54.5222 240.932 54.4578ZM234.909 50.2783C233.756 49.6675 232.626 49.1842 231.549 48.8419C231.454 48.8116 231.401 48.71 231.431 48.6149C231.462 48.5197 231.56 48.4666 231.659 48.4973C232.756 48.8461 233.906 49.3378 235.079 49.9587C235.167 50.0055 235.2 50.1148 235.154 50.2031C235.108 50.29 235 50.3256 234.909 50.2783ZM224.233 48.8244C224.191 48.7338 224.23 48.6264 224.321 48.5842C226.151 47.7334 227.888 47.8582 227.986 47.8489C228.086 47.8505 228.166 47.9327 228.164 48.0326C228.162 48.1325 228.096 48.2269 227.98 48.2104C227.88 48.2199 226.227 48.0967 224.473 48.9121C224.383 48.9542 224.275 48.9152 224.233 48.8244ZM247.012 48.4185C246.652 47.4056 246.095 46.3148 245.356 45.1764C245.302 45.0927 245.325 44.9807 245.409 44.9263C245.492 44.8719 245.604 44.8954 245.659 44.9794C246.414 46.1415 246.983 47.2579 247.353 48.2974C247.386 48.3915 247.337 48.4949 247.243 48.5284C247.146 48.5624 247.044 48.5099 247.012 48.4185ZM243.177 42.2215C242.415 41.2669 241.615 40.3225 240.798 39.4142C240.732 39.3401 240.738 39.2257 240.812 39.159C240.887 39.0921 241.001 39.0982 241.068 39.1726C241.888 40.0859 242.694 41.0359 243.46 41.996C243.522 42.074 243.509 42.1877 243.432 42.2501C243.354 42.3121 243.24 42.3003 243.177 42.2215ZM238.259 36.7509C237.391 35.8919 236.486 35.047 235.57 34.2396C235.495 34.1735 235.488 34.0594 235.554 33.9843C235.62 33.9095 235.734 33.9021 235.809 33.9682C236.731 34.7803 237.641 35.63 238.513 36.4939C238.585 36.5641 238.585 36.6787 238.515 36.7495C238.445 36.8201 238.331 36.8218 238.259 36.7509ZM232.741 31.8879C231.779 31.1342 230.782 30.3991 229.78 29.7032C229.698 29.6461 229.677 29.5335 229.734 29.4514C229.791 29.3689 229.905 29.3495 229.986 29.406C230.994 30.106 231.996 30.8453 232.964 31.6032C233.042 31.6648 233.056 31.7785 232.994 31.857C232.933 31.9349 232.821 31.9501 232.741 31.8879ZM226.697 27.693C225.655 27.055 224.58 26.4401 223.504 25.8655C223.416 25.8185 223.383 25.7089 223.43 25.6209C223.476 25.5326 223.585 25.4998 223.675 25.5465C224.757 26.1245 225.837 26.743 226.886 27.3845C226.971 27.4366 226.998 27.548 226.946 27.6331C226.893 27.7193 226.781 27.7447 226.697 27.693ZM217.983 108.497C217.746 108.479 217.143 108.45 216.16 108.331C216.061 108.319 215.99 108.229 216.002 108.13C216.014 108.031 216.099 107.962 216.204 107.972C216.795 108.044 217.398 108.099 217.994 108.136C218.094 108.142 218.17 108.227 218.164 108.327C218.157 108.423 218.078 108.497 217.983 108.497Z" fill="black"/>
<path d="M147.698 144.595H138.734C138.634 144.595 138.554 144.514 138.554 144.414C138.554 144.314 138.634 144.233 138.734 144.233H147.698C147.798 144.233 147.879 144.314 147.879 144.414C147.879 144.514 147.798 144.595 147.698 144.595Z" fill="black"/>
<path d="M152.143 144.595H150.233C150.133 144.595 150.052 144.514 150.052 144.414C150.052 144.314 150.133 144.233 150.233 144.233H152.143C152.243 144.233 152.323 144.314 152.323 144.414C152.323 144.514 152.243 144.595 152.143 144.595Z" fill="black"/>
<path d="M226.019 166.507C225.967 166.422 225.993 166.311 226.078 166.258C226.164 166.206 226.274 166.232 226.327 166.318C227.718 168.575 230.671 169.279 232.93 167.887C235.183 166.498 235.886 163.535 234.498 161.281C234.445 161.196 234.471 161.085 234.557 161.033C234.642 160.98 234.752 161.007 234.805 161.092C236.299 163.515 235.542 166.701 233.119 168.195C230.696 169.688 227.518 168.94 226.019 166.507Z" fill="black"/>
<path d="M14.5959 164.611C13.1017 162.18 13.8589 159.005 16.2905 157.51C18.7205 156.018 21.8947 156.775 23.3886 159.207C23.4411 159.292 23.4143 159.403 23.3296 159.455C23.2438 159.507 23.1328 159.481 23.0809 159.396C21.6929 157.138 18.7407 156.429 16.4802 157.818C14.2251 159.204 13.5179 162.167 14.9037 164.422C14.9561 164.507 14.9294 164.618 14.8446 164.67C14.7593 164.722 14.6477 164.696 14.5959 164.611Z" fill="black"/>
<path d="M153.58 17.6263C153.482 17.6078 153.417 17.5131 153.436 17.4149C153.931 14.8103 152.225 12.299 149.618 11.8039C147.012 11.3098 144.502 13.0174 144.007 15.6246C143.988 15.7226 143.896 15.7884 143.795 15.7686C143.698 15.75 143.633 15.6554 143.652 15.5573C144.184 12.7539 146.881 10.9169 149.686 11.4488C152.487 11.9804 154.324 14.679 153.791 17.4825C153.772 17.5825 153.675 17.645 153.58 17.6263Z" fill="black"/>
</svg>
